<svg width="132" height="53" viewBox="0 0 132 53" fill="none" xmlns="http://www.w3.org/2000/svg">
<g filter="url(#filter0_dd_2_6623)">
<rect x="10.1432" y="10" width="111.125" height="33" rx="5" fill="#1B2233"/>
<rect x="10.6432" y="10.5" width="110.125" height="32" rx="4.5" stroke="#828282"/>
</g>
<mask id="path-3-outside-1_2_6623" maskUnits="userSpaceOnUse" x="38.3182" y="19" width="58" height="20" fill="black">
<rect fill="white" x="38.3182" y="19" width="58" height="20"/>
<path d="M48.8853 28.9995L51.5479 29.8438C51.1397 31.3281 50.4593 32.4321 49.5069 33.1558C48.5606 33.8732 47.3576 34.2319 45.898 34.2319C44.092 34.2319 42.6076 33.6165 41.4448 32.3857C40.2821 31.1488 39.7007 29.4603 39.7007 27.3203C39.7007 25.0566 40.2852 23.3001 41.4541 22.0508C42.6231 20.7952 44.16 20.1675 46.065 20.1675C47.7287 20.1675 49.0801 20.6592 50.1192 21.6426C50.7376 22.224 51.2015 23.0589 51.5108 24.1475L48.7925 24.7969C48.6317 24.0918 48.2946 23.5352 47.7813 23.127C47.2741 22.7188 46.6556 22.5146 45.9258 22.5146C44.9177 22.5146 44.0982 22.8765 43.4673 23.6001C42.8426 24.3237 42.5303 25.4958 42.5303 27.1162C42.5303 28.8356 42.8395 30.0602 43.458 30.79C44.0765 31.5199 44.8806 31.8848 45.8701 31.8848C46.6 31.8848 47.2277 31.6528 47.7534 31.189C48.2792 30.7251 48.6564 29.9953 48.8853 28.9995ZM54.085 34V20.3994H56.692V34H54.085ZM59.5631 22.8115V20.3994H62.1701V22.8115H59.5631ZM59.5631 34V24.1475H62.1701V34H59.5631ZM73.632 27.0605L71.0622 27.5244C70.9756 27.0111 70.7777 26.6245 70.4685 26.3647C70.1654 26.105 69.7696 25.9751 69.281 25.9751C68.6315 25.9751 68.112 26.2008 67.7224 26.6523C67.3389 27.0977 67.1472 27.846 67.1472 28.8975C67.1472 30.0664 67.342 30.8921 67.7316 31.3745C68.1275 31.8569 68.6563 32.0981 69.3181 32.0981C69.8129 32.0981 70.218 31.959 70.5334 31.6807C70.8488 31.3962 71.0715 30.9106 71.2014 30.2241L73.7619 30.6602C73.496 31.8353 72.9857 32.7228 72.2311 33.3228C71.4766 33.9227 70.4654 34.2227 69.1975 34.2227C67.7564 34.2227 66.606 33.7681 65.7463 32.8589C64.8928 31.9497 64.466 30.6911 64.466 29.083C64.466 27.4564 64.8959 26.1916 65.7556 25.2886C66.6153 24.3794 67.778 23.9248 69.2438 23.9248C70.4437 23.9248 71.3962 24.1846 72.1013 24.7041C72.8125 25.2174 73.3228 26.0029 73.632 27.0605ZM75.7146 34V20.3994H78.3215V27.6172L81.3738 24.1475H84.5837L81.2161 27.7471L84.825 34H82.0139L79.5369 29.5747L78.3215 30.8457V34H75.7146ZM85.3397 24.1475H88.1136L90.47 31.1426L92.7708 24.1475H95.4705L91.9915 33.6289L91.3699 35.3452C91.1411 35.9204 90.9215 36.3595 90.7113 36.6626C90.5071 36.9657 90.269 37.21 89.9969 37.3955C89.7309 37.5872 89.4001 37.7357 89.0042 37.8408C88.6146 37.946 88.1724 37.9985 87.6776 37.9985C87.1766 37.9985 86.6849 37.946 86.2025 37.8408L85.9705 35.7998C86.3787 35.8802 86.7467 35.9204 87.0745 35.9204C87.6807 35.9204 88.1291 35.741 88.4197 35.3823C88.7104 35.0298 88.9331 34.5783 89.0877 34.0278L85.3397 24.1475Z"/>
</mask>
<path d="M48.8853 28.9995L51.5479 29.8438C51.1397 31.3281 50.4593 32.4321 49.5069 33.1558C48.5606 33.8732 47.3576 34.2319 45.898 34.2319C44.092 34.2319 42.6076 33.6165 41.4448 32.3857C40.2821 31.1488 39.7007 29.4603 39.7007 27.3203C39.7007 25.0566 40.2852 23.3001 41.4541 22.0508C42.6231 20.7952 44.16 20.1675 46.065 20.1675C47.7287 20.1675 49.0801 20.6592 50.1192 21.6426C50.7376 22.224 51.2015 23.0589 51.5108 24.1475L48.7925 24.7969C48.6317 24.0918 48.2946 23.5352 47.7813 23.127C47.2741 22.7188 46.6556 22.5146 45.9258 22.5146C44.9177 22.5146 44.0982 22.8765 43.4673 23.6001C42.8426 24.3237 42.5303 25.4958 42.5303 27.1162C42.5303 28.8356 42.8395 30.0602 43.458 30.79C44.0765 31.5199 44.8806 31.8848 45.8701 31.8848C46.6 31.8848 47.2277 31.6528 47.7534 31.189C48.2792 30.7251 48.6564 29.9953 48.8853 28.9995ZM54.085 34V20.3994H56.692V34H54.085ZM59.5631 22.8115V20.3994H62.1701V22.8115H59.5631ZM59.5631 34V24.1475H62.1701V34H59.5631ZM73.632 27.0605L71.0622 27.5244C70.9756 27.0111 70.7777 26.6245 70.4685 26.3647C70.1654 26.105 69.7696 25.9751 69.281 25.9751C68.6315 25.9751 68.112 26.2008 67.7224 26.6523C67.3389 27.0977 67.1472 27.846 67.1472 28.8975C67.1472 30.0664 67.342 30.8921 67.7316 31.3745C68.1275 31.8569 68.6563 32.0981 69.3181 32.0981C69.8129 32.0981 70.218 31.959 70.5334 31.6807C70.8488 31.3962 71.0715 30.9106 71.2014 30.2241L73.7619 30.6602C73.496 31.8353 72.9857 32.7228 72.2311 33.3228C71.4766 33.9227 70.4654 34.2227 69.1975 34.2227C67.7564 34.2227 66.606 33.7681 65.7463 32.8589C64.8928 31.9497 64.466 30.6911 64.466 29.083C64.466 27.4564 64.8959 26.1916 65.7556 25.2886C66.6153 24.3794 67.778 23.9248 69.2438 23.9248C70.4437 23.9248 71.3962 24.1846 72.1013 24.7041C72.8125 25.2174 73.3228 26.0029 73.632 27.0605ZM75.7146 34V20.3994H78.3215V27.6172L81.3738 24.1475H84.5837L81.2161 27.7471L84.825 34H82.0139L79.5369 29.5747L78.3215 30.8457V34H75.7146ZM85.3397 24.1475H88.1136L90.47 31.1426L92.7708 24.1475H95.4705L91.9915 33.6289L91.3699 35.3452C91.1411 35.9204 90.9215 36.3595 90.7113 36.6626C90.5071 36.9657 90.269 37.21 89.9969 37.3955C89.7309 37.5872 89.4001 37.7357 89.0042 37.8408C88.6146 37.946 88.1724 37.9985 87.6776 37.9985C87.1766 37.9985 86.6849 37.946 86.2025 37.8408L85.9705 35.7998C86.3787 35.8802 86.7467 35.9204 87.0745 35.9204C87.6807 35.9204 88.1291 35.741 88.4197 35.3823C88.7104 35.0298 88.9331 34.5783 89.0877 34.0278L85.3397 24.1475Z" fill="white"/>
<path d="M48.8853 28.9995L49.0364 28.5229L48.5194 28.359L48.398 28.8875L48.8853 28.9995ZM51.5479 29.8438L52.03 29.9763L52.1575 29.5125L51.699 29.3671L51.5479 29.8438ZM49.5069 33.1558L49.8089 33.5542L49.8093 33.5539L49.5069 33.1558ZM41.4448 32.3857L41.0805 32.7282L41.0814 32.7291L41.4448 32.3857ZM41.4541 22.0508L41.8192 22.3924L41.8201 22.3915L41.4541 22.0508ZM50.1192 21.6426L49.7755 22.0057L49.7767 22.0069L50.1192 21.6426ZM51.5108 24.1475L51.6269 24.6338L52.1343 24.5126L51.9917 24.0108L51.5108 24.1475ZM48.7925 24.7969L48.305 24.9081L48.4173 25.4006L48.9087 25.2832L48.7925 24.7969ZM47.7813 23.127L47.4678 23.5165L47.4701 23.5183L47.7813 23.127ZM43.4673 23.6001L43.0904 23.2715L43.0888 23.2734L43.4673 23.6001ZM48.7341 29.4761L51.3967 30.3204L51.699 29.3671L49.0364 28.5229L48.7341 29.4761ZM51.0658 29.7112C50.6782 31.1203 50.0472 32.1173 49.2044 32.7576L49.8093 33.5539C50.8715 32.7469 51.6011 31.5359 52.03 29.9763L51.0658 29.7112ZM49.2048 32.7573C48.3638 33.395 47.2741 33.7319 45.898 33.7319V34.7319C47.4411 34.7319 48.7574 34.3515 49.8089 33.5542L49.2048 32.7573ZM45.898 33.7319C44.2193 33.7319 42.8698 33.166 41.8083 32.0424L41.0814 32.7291C42.3454 34.0671 43.9647 34.7319 45.898 34.7319V33.7319ZM41.8092 32.0433C40.7547 30.9215 40.2007 29.3676 40.2007 27.3203H39.2007C39.2007 29.553 39.8095 31.376 41.0805 32.7282L41.8092 32.0433ZM40.2007 27.3203C40.2007 25.1415 40.7619 23.5224 41.8192 22.3924L41.089 21.7092C39.8084 23.0779 39.2007 24.9718 39.2007 27.3203H40.2007ZM41.8201 22.3915C42.8834 21.2494 44.2818 20.6675 46.065 20.6675V19.6675C44.0382 19.6675 42.3627 20.3411 41.0882 21.7101L41.8201 22.3915ZM46.065 20.6675C47.6232 20.6675 48.8443 21.1244 49.7755 22.0057L50.4628 21.2794C49.3159 20.1939 47.8342 19.6675 46.065 19.6675V20.6675ZM49.7767 22.0069C50.3108 22.509 50.7373 23.2545 51.0298 24.2841L51.9917 24.0108C51.6657 22.8634 51.1645 21.939 50.4616 21.2783L49.7767 22.0069ZM51.3946 23.6611L48.6763 24.3106L48.9087 25.2832L51.6269 24.6338L51.3946 23.6611ZM49.28 24.6857C49.0967 23.882 48.7039 23.2218 48.0925 22.7356L47.4701 23.5183C47.8853 23.8485 48.1667 24.3016 48.305 24.9081L49.28 24.6857ZM48.0948 22.7374C47.488 22.2491 46.755 22.0146 45.9258 22.0146V23.0146C46.5562 23.0146 47.0602 23.1884 47.4678 23.5165L48.0948 22.7374ZM45.9258 22.0146C44.7814 22.0146 43.8215 22.4329 43.0904 23.2715L43.8442 23.9287C44.3748 23.32 45.0539 23.0146 45.9258 23.0146V22.0146ZM43.0888 23.2734C42.3471 24.1326 42.0303 25.4525 42.0303 27.1162H43.0303C43.0303 25.5391 43.3382 24.5149 43.8458 23.9268L43.0888 23.2734ZM42.0303 27.1162C42.0303 28.8697 42.3406 30.2448 43.0766 31.1133L43.8395 30.4668C43.3385 29.8756 43.0303 28.8015 43.0303 27.1162H42.0303ZM43.0766 31.1133C43.7938 31.9596 44.7394 32.3848 45.8701 32.3848V31.3848C45.0217 31.3848 44.3593 31.0801 43.8395 30.4668L43.0766 31.1133ZM45.8701 32.3848C46.7163 32.3848 47.4632 32.1119 48.0842 31.5639L47.4226 30.814C46.9923 31.1938 46.4836 31.3848 45.8701 31.3848V32.3848ZM48.0842 31.5639C48.7168 31.0058 49.1306 30.1646 49.3726 29.1115L48.398 28.8875C48.1823 29.826 47.8415 30.4444 47.4226 30.814L48.0842 31.5639ZM54.085 34H53.585V34.5H54.085V34ZM54.085 20.3994V19.8994H53.585V20.3994H54.085ZM56.692 20.3994H57.192V19.8994H56.692V20.3994ZM56.692 34V34.5H57.192V34H56.692ZM54.585 34V20.3994H53.585V34H54.585ZM54.085 20.8994H56.692V19.8994H54.085V20.8994ZM56.192 20.3994V34H57.192V20.3994H56.192ZM56.692 33.5H54.085V34.5H56.692V33.5ZM59.5631 22.8115H59.0631V23.3115H59.5631V22.8115ZM59.5631 20.3994V19.8994H59.0631V20.3994H59.5631ZM62.1701 20.3994H62.6701V19.8994H62.1701V20.3994ZM62.1701 22.8115V23.3115H62.6701V22.8115H62.1701ZM59.5631 34H59.0631V34.5H59.5631V34ZM59.5631 24.1475V23.6475H59.0631V24.1475H59.5631ZM62.1701 24.1475H62.6701V23.6475H62.1701V24.1475ZM62.1701 34V34.5H62.6701V34H62.1701ZM60.0631 22.8115V20.3994H59.0631V22.8115H60.0631ZM59.5631 20.8994H62.1701V19.8994H59.5631V20.8994ZM61.6701 20.3994V22.8115H62.6701V20.3994H61.6701ZM62.1701 22.3115H59.5631V23.3115H62.1701V22.3115ZM60.0631 34V24.1475H59.0631V34H60.0631ZM59.5631 24.6475H62.1701V23.6475H59.5631V24.6475ZM61.6701 24.1475V34H62.6701V24.1475H61.6701ZM62.1701 33.5H59.5631V34.5H62.1701V33.5ZM73.632 27.0605L73.7208 27.5526L74.268 27.4538L74.1119 26.9202L73.632 27.0605ZM71.0622 27.5244L70.5692 27.6076L70.6533 28.1063L71.151 28.0165L71.0622 27.5244ZM70.4685 26.3647L70.143 26.7444L70.1469 26.7476L70.4685 26.3647ZM67.7224 26.6523L67.3438 26.3257L67.3435 26.3261L67.7224 26.6523ZM67.7316 31.3745L67.3427 31.6887L67.3451 31.6917L67.7316 31.3745ZM70.5334 31.6807L70.8642 32.0556L70.8683 32.0519L70.5334 31.6807ZM71.2014 30.2241L71.2853 29.7312L70.8013 29.6488L70.7101 30.1312L71.2014 30.2241ZM73.7619 30.6602L74.2496 30.7705L74.3661 30.2558L73.8458 30.1673L73.7619 30.6602ZM72.2311 33.3228L71.92 32.9314L72.2311 33.3228ZM65.7463 32.8589L65.3817 33.2011L65.383 33.2024L65.7463 32.8589ZM65.7556 25.2886L66.1177 25.6333L66.1189 25.6321L65.7556 25.2886ZM72.1013 24.7041L71.8046 25.1066L71.8086 25.1095L72.1013 24.7041ZM73.5432 26.5685L70.9734 27.0324L71.151 28.0165L73.7208 27.5526L73.5432 26.5685ZM71.5552 27.4413C71.4547 26.8454 71.2139 26.3379 70.79 25.9819L70.1469 26.7476C70.3415 26.9111 70.4965 27.1768 70.5692 27.6076L71.5552 27.4413ZM70.7938 25.9851C70.3811 25.6313 69.8611 25.4751 69.281 25.4751V26.4751C69.678 26.4751 69.9497 26.5786 70.1431 26.7444L70.7938 25.9851ZM69.281 25.4751C68.5008 25.4751 67.8376 25.7535 67.3438 26.3257L68.1009 26.979C68.3864 26.6482 68.7623 26.4751 69.281 26.4751V25.4751ZM67.3435 26.3261C66.8402 26.9105 66.6472 27.811 66.6472 28.8975H67.6472C67.6472 27.881 67.8376 27.2848 68.1012 26.9786L67.3435 26.3261ZM66.6472 28.8975C66.6472 30.0929 66.8406 31.0671 67.3427 31.6887L68.1206 31.0603C67.8434 30.7171 67.6472 30.0399 67.6472 28.8975H66.6472ZM67.3451 31.6917C67.8423 32.2976 68.5169 32.5981 69.3181 32.5981V31.5981C68.7956 31.5981 68.4126 31.4162 68.1182 31.0574L67.3451 31.6917ZM69.3181 32.5981C69.912 32.5981 70.4417 32.4284 70.8642 32.0556L70.2026 31.3057C69.9942 31.4896 69.7137 31.5981 69.3181 31.5981V32.5981ZM70.8683 32.0519C71.3024 31.6604 71.5545 31.0475 71.6926 30.3171L70.7101 30.1312C70.5885 30.7738 70.3952 31.1319 70.1985 31.3094L70.8683 32.0519ZM71.1174 30.717L73.678 31.1531L73.8458 30.1673L71.2853 29.7312L71.1174 30.717ZM73.2742 30.5498C73.027 31.6423 72.565 32.4185 71.92 32.9314L72.5423 33.7141C73.4064 33.0271 73.9649 32.0283 74.2496 30.7705L73.2742 30.5498ZM71.92 32.9314C71.2783 33.4415 70.3881 33.7227 69.1975 33.7227V34.7227C70.5426 34.7227 71.6748 34.4038 72.5423 33.7141L71.92 32.9314ZM69.1975 33.7227C67.871 33.7227 66.8602 33.3092 66.1096 32.5154L65.383 33.2024C66.3517 34.2269 67.6417 34.7227 69.1975 34.7227V33.7227ZM66.1108 32.5167C65.3673 31.7247 64.966 30.602 64.966 29.083H63.966C63.966 30.7801 64.4182 32.1747 65.3817 33.2011L66.1108 32.5167ZM64.966 29.083C64.966 27.5443 65.3709 26.4177 66.1177 25.6333L65.3934 24.9438C64.4208 25.9654 63.966 27.3684 63.966 29.083H64.966ZM66.1189 25.6321C66.8678 24.84 67.8898 24.4248 69.2438 24.4248V23.4248C67.6662 23.4248 66.3627 23.9188 65.3923 24.945L66.1189 25.6321ZM69.2438 24.4248C70.3757 24.4248 71.2122 24.6701 71.8047 25.1066L72.3979 24.3016C71.5802 23.6991 70.5117 23.4248 69.2438 23.4248V24.4248ZM71.8086 25.1095C72.4087 25.5426 72.8659 26.2222 73.1521 27.2009L74.1119 26.9202C73.7796 25.7837 73.2163 24.8922 72.3939 24.2987L71.8086 25.1095ZM75.7146 34H75.2146V34.5H75.7146V34ZM75.7146 20.3994V19.8994H75.2146V20.3994H75.7146ZM78.3215 20.3994H78.8215V19.8994H78.3215V20.3994ZM78.3215 27.6172H77.8215V28.9426L78.697 27.9474L78.3215 27.6172ZM81.3738 24.1475V23.6475H81.1477L80.9984 23.8172L81.3738 24.1475ZM84.5837 24.1475L84.9489 24.4891L85.7362 23.6475H84.5837V24.1475ZM81.2161 27.7471L80.851 27.4055L80.5978 27.6761L80.783 27.997L81.2161 27.7471ZM84.825 34V34.5H85.6908L85.258 33.7501L84.825 34ZM82.0139 34L81.5776 34.2442L81.7208 34.5H82.0139V34ZM79.5369 29.5747L79.9732 29.3305L79.6429 28.7404L79.1755 29.2292L79.5369 29.5747ZM78.3215 30.8457L77.9602 30.5002L77.8215 30.6451V30.8457H78.3215ZM78.3215 34V34.5H78.8215V34H78.3215ZM76.2146 34V20.3994H75.2146V34H76.2146ZM75.7146 20.8994H78.3215V19.8994H75.7146V20.8994ZM77.8215 20.3994V27.6172H78.8215V20.3994H77.8215ZM78.697 27.9474L81.7492 24.4777L80.9984 23.8172L77.9461 27.2869L78.697 27.9474ZM81.3738 24.6475H84.5837V23.6475H81.3738V24.6475ZM84.2186 23.8059L80.851 27.4055L81.5812 28.0887L84.9489 24.4891L84.2186 23.8059ZM80.783 27.997L84.3919 34.2499L85.258 33.7501L81.6491 27.4971L80.783 27.997ZM84.825 33.5H82.0139V34.5H84.825V33.5ZM82.4502 33.7558L79.9732 29.3305L79.1006 29.8189L81.5776 34.2442L82.4502 33.7558ZM79.1755 29.2292L77.9602 30.5002L78.6829 31.1913L79.8983 29.9203L79.1755 29.2292ZM77.8215 30.8457V34H78.8215V30.8457H77.8215ZM78.3215 33.5H75.7146V34.5H78.3215V33.5ZM85.3397 24.1475V23.6475H84.6152L84.8722 24.3248L85.3397 24.1475ZM88.1136 24.1475L88.5874 23.9878L88.4728 23.6475H88.1136V24.1475ZM90.47 31.1426L89.9962 31.3022L90.4757 32.7256L90.945 31.2988L90.47 31.1426ZM92.7708 24.1475V23.6475H92.4089L92.2959 23.9912L92.7708 24.1475ZM95.4705 24.1475L95.9399 24.3197L96.1866 23.6475H95.4705V24.1475ZM91.9915 33.6289L91.5221 33.4567L91.5214 33.4586L91.9915 33.6289ZM91.3699 35.3452L91.8345 35.53L91.8374 35.5228L91.8401 35.5155L91.3699 35.3452ZM90.7113 36.6626L90.3004 36.3775L90.2965 36.3833L90.7113 36.6626ZM89.9969 37.3955L89.7151 36.9823L89.7045 36.9899L89.9969 37.3955ZM89.0042 37.8408L88.8759 37.3576L88.874 37.3581L89.0042 37.8408ZM86.2025 37.8408L85.7057 37.8973L85.7461 38.2531L86.096 38.3294L86.2025 37.8408ZM85.9705 35.7998L86.0672 35.3092L85.3966 35.1771L85.4737 35.8563L85.9705 35.7998ZM88.4197 35.3823L88.034 35.0642L88.0313 35.0675L88.4197 35.3823ZM89.0877 34.0278L89.5691 34.163L89.6136 34.0045L89.5552 33.8505L89.0877 34.0278ZM85.3397 24.6475H88.1136V23.6475H85.3397V24.6475ZM87.6398 24.3071L89.9962 31.3022L90.9439 30.983L88.5874 23.9878L87.6398 24.3071ZM90.945 31.2988L93.2458 24.3037L92.2959 23.9912L89.9951 30.9864L90.945 31.2988ZM92.7708 24.6475H95.4705V23.6475H92.7708V24.6475ZM95.0011 23.9752L91.5221 33.4567L92.4609 33.8011L95.9399 24.3197L95.0011 23.9752ZM91.5214 33.4586L90.8998 35.175L91.8401 35.5155L92.4616 33.7992L91.5214 33.4586ZM90.9054 35.1604C90.6825 35.7206 90.4794 36.1197 90.3005 36.3776L91.122 36.9476C91.3637 36.5994 91.5997 36.1202 91.8345 35.53L90.9054 35.1604ZM90.2965 36.3833C90.124 36.6395 89.9295 36.8363 89.7152 36.9824L90.2786 37.8086C90.6086 37.5836 90.8903 37.2918 91.126 36.9419L90.2965 36.3833ZM89.7045 36.9899C89.4986 37.1383 89.2269 37.2643 88.8759 37.3576L89.1326 38.3241C89.5732 38.207 89.9632 38.0362 90.2893 37.8011L89.7045 36.9899ZM88.874 37.3581C88.5351 37.4495 88.1379 37.4985 87.6776 37.4985V38.4985C88.2068 38.4985 88.6941 38.4424 89.1345 38.3236L88.874 37.3581ZM87.6776 37.4985C87.2119 37.4985 86.7559 37.4497 86.3089 37.3523L86.096 38.3294C86.6139 38.4422 87.1413 38.4985 87.6776 38.4985V37.4985ZM86.6993 37.7844L86.4673 35.7433L85.4737 35.8563L85.7057 37.8973L86.6993 37.7844ZM85.8739 36.2904C86.3059 36.3755 86.707 36.4204 87.0745 36.4204V35.4204C86.7865 35.4204 86.4516 35.385 86.0672 35.3092L85.8739 36.2904ZM87.0745 36.4204C87.7807 36.4204 88.3947 36.2074 88.8082 35.6971L88.0313 35.0675C87.8634 35.2747 87.5806 35.4204 87.0745 35.4204V36.4204ZM88.8055 35.7004C89.1501 35.2825 89.4002 34.7641 89.5691 34.163L88.6063 33.8926C88.466 34.3924 88.2708 34.777 88.034 35.0642L88.8055 35.7004ZM89.5552 33.8505L85.8072 23.9701L84.8722 24.3248L88.6202 34.2052L89.5552 33.8505Z" fill="#828282" mask="url(#path-3-outside-1_2_6623)"/>
<defs>
<filter id="filter0_dd_2_6623" x="0.143219" y="0" width="131.125" height="53" filterUnits="userSpaceOnUse" color-interpolation-filters="sRGB">
<feFlood flood-opacity="0" result="BackgroundImageFix"/>
<feColorMatrix in="SourceAlpha" type="matrix" values="0 0 0 0 0 0 0 0 0 0 0 0 0 0 0 0 0 0 127 0" result="hardAlpha"/>
<feOffset/>
<feGaussianBlur stdDeviation="5"/>
<feComposite in2="hardAlpha" operator="out"/>
<feColorMatrix type="matrix" values="0 0 0 0 0 0 0 0 0 0 0 0 0 0 0 0 0 0 0.5 0"/>
<feBlend mode="normal" in2="BackgroundImageFix" result="effect1_dropShadow_2_6623"/>
<feColorMatrix in="SourceAlpha" type="matrix" values="0 0 0 0 0 0 0 0 0 0 0 0 0 0 0 0 0 0 127 0" result="hardAlpha"/>
<feMorphology radius="1" operator="dilate" in="SourceAlpha" result="effect2_dropShadow_2_6623"/>
<feOffset dy="2"/>
<feGaussianBlur stdDeviation="0.5"/>
<feComposite in2="hardAlpha" operator="out"/>
<feColorMatrix type="matrix" values="0 0 0 0 0 0 0 0 0 0 0 0 0 0 0 0 0 0 0.6 0"/>
<feBlend mode="normal" in2="effect1_dropShadow_2_6623" result="effect2_dropShadow_2_6623"/>
<feBlend mode="normal" in="SourceGraphic" in2="effect2_dropShadow_2_6623" result="shape"/>
</filter>
</defs>
</svg>
