<svg width="126" height="42" viewBox="0 0 126 42" fill="none" xmlns="http://www.w3.org/2000/svg">
<g filter="url(#filter0_dd_2_6624)">
<rect x="4.8504" y="1.5" width="116.187" height="32" rx="4.5" stroke="#A6A6A6" shape-rendering="crispEdges"/>
</g>
<mask id="path-2-outside-1_2_6624" maskUnits="userSpaceOnUse" x="12.6986" y="11" width="103" height="15" fill="black">
<rect fill="white" x="12.6986" y="11" width="103" height="15"/>
<path d="M13.8507 25V11.3994H17.9606L20.4284 20.6768L22.8683 11.3994H26.9875V25H24.4362V14.2939L21.7365 25H19.0924L16.402 14.2939V25H13.8507ZM35.592 21.8643L38.1897 22.3003C37.8557 23.2528 37.3269 23.9795 36.6032 24.4805C35.8858 24.9753 34.9859 25.2227 33.9035 25.2227C32.1903 25.2227 30.9224 24.6629 30.0998 23.5435C29.4504 22.6466 29.1257 21.5148 29.1257 20.1479C29.1257 18.5151 29.5525 17.238 30.406 16.3164C31.2595 15.3887 32.3387 14.9248 33.6438 14.9248C35.1096 14.9248 36.2662 15.4103 37.1135 16.3813C37.9608 17.3462 38.3659 18.8275 38.3288 20.8252H31.7976C31.8161 21.5983 32.0264 22.2013 32.4284 22.6343C32.8304 23.061 33.3314 23.2744 33.9314 23.2744C34.3396 23.2744 34.6828 23.1631 34.9611 22.9404C35.2395 22.7178 35.4498 22.359 35.592 21.8643ZM35.7404 19.2295C35.7219 18.4749 35.5271 17.9028 35.156 17.5132C34.7849 17.1174 34.3334 16.9194 33.8015 16.9194C33.2325 16.9194 32.7624 17.1266 32.3913 17.541C32.0202 17.9554 31.8378 18.5182 31.844 19.2295H35.7404ZM49.2434 18.0605L46.6736 18.5244C46.587 18.0111 46.3891 17.6245 46.0799 17.3647C45.7768 17.105 45.381 16.9751 44.8924 16.9751C44.2429 16.9751 43.7234 17.2008 43.3338 17.6523C42.9503 18.0977 42.7586 18.846 42.7586 19.8975C42.7586 21.0664 42.9534 21.8921 43.343 22.3745C43.7389 22.8569 44.2677 23.0981 44.9295 23.0981C45.4243 23.0981 45.8294 22.959 46.1448 22.6807C46.4602 22.3962 46.6829 21.9106 46.8128 21.2241L49.3733 21.6602C49.1074 22.8353 48.5971 23.7228 47.8426 24.3228C47.088 24.9227 46.0768 25.2227 44.8089 25.2227C43.3678 25.2227 42.2174 24.7681 41.3577 23.8589C40.5042 22.9497 40.0774 21.6911 40.0774 20.083C40.0774 18.4564 40.5073 17.1916 41.367 16.2886C42.2267 15.3794 43.3894 14.9248 44.8552 14.9248C46.0551 14.9248 47.0076 15.1846 47.7127 15.7041C48.4239 16.2174 48.9342 17.0029 49.2434 18.0605ZM54.0164 11.3994V16.3999C54.8576 15.4165 55.8626 14.9248 57.0316 14.9248C57.6315 14.9248 58.1727 15.0361 58.6551 15.2588C59.1375 15.4814 59.4993 15.766 59.7406 16.1123C59.988 16.4587 60.1549 16.8421 60.2415 17.2627C60.3343 17.6833 60.3807 18.3358 60.3807 19.2202V25H57.7738V19.7954C57.7738 18.7625 57.7243 18.1069 57.6253 17.8286C57.5264 17.5503 57.3501 17.3307 57.0965 17.1699C56.8491 17.0029 56.5368 16.9194 56.1595 16.9194C55.7266 16.9194 55.34 17.0246 54.9998 17.2349C54.6597 17.4451 54.4092 17.7637 54.2484 18.1904C54.0937 18.611 54.0164 19.2357 54.0164 20.0645V25H51.4095V11.3994H54.0164ZM65.1723 18.1533L62.8065 17.7266C63.0725 16.7741 63.5302 16.069 64.1796 15.6113C64.829 15.1536 65.7938 14.9248 67.0741 14.9248C68.2369 14.9248 69.1028 15.064 69.6718 15.3423C70.2408 15.6144 70.6397 15.9639 70.8685 16.3906C71.1036 16.8112 71.2211 17.5874 71.2211 18.7192L71.1933 21.7622C71.1933 22.6281 71.2335 23.2682 71.3139 23.6826C71.4004 24.0908 71.5582 24.5299 71.787 25H69.2079C69.1399 24.8268 69.0564 24.5701 68.9574 24.23C68.9141 24.0754 68.8832 23.9733 68.8646 23.9238C68.4193 24.3568 67.9431 24.6815 67.4359 24.8979C66.9288 25.1144 66.3876 25.2227 65.8124 25.2227C64.7981 25.2227 63.9971 24.9474 63.4096 24.397C62.8282 23.8465 62.5375 23.1507 62.5375 22.3096C62.5375 21.7529 62.6705 21.2581 62.9364 20.8252C63.2024 20.3861 63.5735 20.0521 64.0497 19.8232C64.5321 19.5882 65.2248 19.3841 66.1278 19.2109C67.3462 18.9821 68.1905 18.7687 68.6605 18.5708V18.311C68.6605 17.8101 68.5368 17.4544 68.2894 17.2441C68.042 17.0277 67.5751 16.9194 66.8886 16.9194C66.4247 16.9194 66.0629 17.0122 65.8031 17.1978C65.5434 17.3771 65.3331 17.6956 65.1723 18.1533ZM68.6605 20.2686C68.3266 20.3799 67.7977 20.5129 67.0741 20.6675C66.3505 20.8221 65.8773 20.9736 65.6547 21.1221C65.3145 21.3633 65.1444 21.6694 65.1444 22.0405C65.1444 22.4054 65.2805 22.7209 65.5526 22.9868C65.8248 23.2528 66.1711 23.3857 66.5917 23.3857C67.0617 23.3857 67.5101 23.2311 67.9369 22.9219C68.2523 22.6868 68.4595 22.3993 68.5585 22.0591C68.6265 21.8364 68.6605 21.4128 68.6605 20.7881V20.2686ZM82.9521 25H80.3452V19.9717C80.3452 18.9079 80.2895 18.2214 80.1782 17.9121C80.0668 17.5967 79.8844 17.3524 79.6308 17.1792C79.3834 17.006 79.0834 16.9194 78.7309 16.9194C78.2794 16.9194 77.8743 17.0431 77.5156 17.2905C77.1569 17.5379 76.9095 17.8657 76.7734 18.2739C76.6435 18.6821 76.5786 19.4367 76.5786 20.5376V25H73.9716V15.1475H76.393V16.5947C77.2527 15.4814 78.3351 14.9248 79.6401 14.9248C80.2153 14.9248 80.741 15.0299 81.2172 15.2402C81.6935 15.4443 82.0522 15.7072 82.2934 16.0288C82.5408 16.3504 82.7109 16.7153 82.8037 17.1235C82.9026 17.5317 82.9521 18.1162 82.9521 18.877V25ZM85.7954 13.8115V11.3994H88.4024V13.8115H85.7954ZM85.7954 25V15.1475H88.4024V25H85.7954ZM99.8643 18.0605L97.2945 18.5244C97.2079 18.0111 97.01 17.6245 96.7008 17.3647C96.3977 17.105 96.0019 16.9751 95.5133 16.9751C94.8638 16.9751 94.3443 17.2008 93.9547 17.6523C93.5712 18.0977 93.3795 18.846 93.3795 19.8975C93.3795 21.0664 93.5743 21.8921 93.9639 22.3745C94.3598 22.8569 94.8886 23.0981 95.5504 23.0981C96.0452 23.0981 96.4503 22.959 96.7657 22.6807C97.0811 22.3962 97.3038 21.9106 97.4337 21.2241L99.9942 21.6602C99.7283 22.8353 99.218 23.7228 98.4635 24.3228C97.7089 24.9227 96.6977 25.2227 95.4298 25.2227C93.9887 25.2227 92.8383 24.7681 91.9786 23.8589C91.1251 22.9497 90.6983 21.6911 90.6983 20.083C90.6983 18.4564 91.1282 17.1916 91.9879 16.2886C92.8476 15.3794 94.0103 14.9248 95.4761 14.9248C96.676 14.9248 97.6285 15.1846 98.3336 15.7041C99.0448 16.2174 99.5551 17.0029 99.8643 18.0605ZM103.988 18.1533L101.622 17.7266C101.888 16.7741 102.346 16.069 102.995 15.6113C103.645 15.1536 104.61 14.9248 105.89 14.9248C107.053 14.9248 107.918 15.064 108.487 15.3423C109.056 15.6144 109.455 15.9639 109.684 16.3906C109.919 16.8112 110.037 17.5874 110.037 18.7192L110.009 21.7622C110.009 22.6281 110.049 23.2682 110.13 23.6826C110.216 24.0908 110.374 24.5299 110.603 25H108.024C107.956 24.8268 107.872 24.5701 107.773 24.23C107.73 24.0754 107.699 23.9733 107.68 23.9238C107.235 24.3568 106.759 24.6815 106.252 24.8979C105.744 25.1144 105.203 25.2227 104.628 25.2227C103.614 25.2227 102.813 24.9474 102.225 24.397C101.644 23.8465 101.353 23.1507 101.353 22.3096C101.353 21.7529 101.486 21.2581 101.752 20.8252C102.018 20.3861 102.389 20.0521 102.865 19.8232C103.348 19.5882 104.04 19.3841 104.943 19.2109C106.162 18.9821 107.006 18.7687 107.476 18.5708V18.311C107.476 17.8101 107.353 17.4544 107.105 17.2441C106.858 17.0277 106.391 16.9194 105.704 16.9194C105.24 16.9194 104.879 17.0122 104.619 17.1978C104.359 17.3771 104.149 17.6956 103.988 18.1533ZM107.476 20.2686C107.142 20.3799 106.613 20.5129 105.89 20.6675C105.166 20.8221 104.693 20.9736 104.47 21.1221C104.13 21.3633 103.96 21.6694 103.96 22.0405C103.96 22.4054 104.096 22.7209 104.368 22.9868C104.64 23.2528 104.987 23.3857 105.407 23.3857C105.877 23.3857 106.326 23.2311 106.753 22.9219C107.068 22.6868 107.275 22.3993 107.374 22.0591C107.442 21.8364 107.476 21.4128 107.476 20.7881V20.2686ZM112.806 25V11.3994H115.413V25H112.806Z"/>
</mask>
<path d="M13.8507 25V11.3994H17.9606L20.4284 20.6768L22.8683 11.3994H26.9875V25H24.4362V14.2939L21.7365 25H19.0924L16.402 14.2939V25H13.8507ZM35.592 21.8643L38.1897 22.3003C37.8557 23.2528 37.3269 23.9795 36.6032 24.4805C35.8858 24.9753 34.9859 25.2227 33.9035 25.2227C32.1903 25.2227 30.9224 24.6629 30.0998 23.5435C29.4504 22.6466 29.1257 21.5148 29.1257 20.1479C29.1257 18.5151 29.5525 17.238 30.406 16.3164C31.2595 15.3887 32.3387 14.9248 33.6438 14.9248C35.1096 14.9248 36.2662 15.4103 37.1135 16.3813C37.9608 17.3462 38.3659 18.8275 38.3288 20.8252H31.7976C31.8161 21.5983 32.0264 22.2013 32.4284 22.6343C32.8304 23.061 33.3314 23.2744 33.9314 23.2744C34.3396 23.2744 34.6828 23.1631 34.9611 22.9404C35.2395 22.7178 35.4498 22.359 35.592 21.8643ZM35.7404 19.2295C35.7219 18.4749 35.5271 17.9028 35.156 17.5132C34.7849 17.1174 34.3334 16.9194 33.8015 16.9194C33.2325 16.9194 32.7624 17.1266 32.3913 17.541C32.0202 17.9554 31.8378 18.5182 31.844 19.2295H35.7404ZM49.2434 18.0605L46.6736 18.5244C46.587 18.0111 46.3891 17.6245 46.0799 17.3647C45.7768 17.105 45.381 16.9751 44.8924 16.9751C44.2429 16.9751 43.7234 17.2008 43.3338 17.6523C42.9503 18.0977 42.7586 18.846 42.7586 19.8975C42.7586 21.0664 42.9534 21.8921 43.343 22.3745C43.7389 22.8569 44.2677 23.0981 44.9295 23.0981C45.4243 23.0981 45.8294 22.959 46.1448 22.6807C46.4602 22.3962 46.6829 21.9106 46.8128 21.2241L49.3733 21.6602C49.1074 22.8353 48.5971 23.7228 47.8426 24.3228C47.088 24.9227 46.0768 25.2227 44.8089 25.2227C43.3678 25.2227 42.2174 24.7681 41.3577 23.8589C40.5042 22.9497 40.0774 21.6911 40.0774 20.083C40.0774 18.4564 40.5073 17.1916 41.367 16.2886C42.2267 15.3794 43.3894 14.9248 44.8552 14.9248C46.0551 14.9248 47.0076 15.1846 47.7127 15.7041C48.4239 16.2174 48.9342 17.0029 49.2434 18.0605ZM54.0164 11.3994V16.3999C54.8576 15.4165 55.8626 14.9248 57.0316 14.9248C57.6315 14.9248 58.1727 15.0361 58.6551 15.2588C59.1375 15.4814 59.4993 15.766 59.7406 16.1123C59.988 16.4587 60.1549 16.8421 60.2415 17.2627C60.3343 17.6833 60.3807 18.3358 60.3807 19.2202V25H57.7738V19.7954C57.7738 18.7625 57.7243 18.1069 57.6253 17.8286C57.5264 17.5503 57.3501 17.3307 57.0965 17.1699C56.8491 17.0029 56.5368 16.9194 56.1595 16.9194C55.7266 16.9194 55.34 17.0246 54.9998 17.2349C54.6597 17.4451 54.4092 17.7637 54.2484 18.1904C54.0937 18.611 54.0164 19.2357 54.0164 20.0645V25H51.4095V11.3994H54.0164ZM65.1723 18.1533L62.8065 17.7266C63.0725 16.7741 63.5302 16.069 64.1796 15.6113C64.829 15.1536 65.7938 14.9248 67.0741 14.9248C68.2369 14.9248 69.1028 15.064 69.6718 15.3423C70.2408 15.6144 70.6397 15.9639 70.8685 16.3906C71.1036 16.8112 71.2211 17.5874 71.2211 18.7192L71.1933 21.7622C71.1933 22.6281 71.2335 23.2682 71.3139 23.6826C71.4004 24.0908 71.5582 24.5299 71.787 25H69.2079C69.1399 24.8268 69.0564 24.5701 68.9574 24.23C68.9141 24.0754 68.8832 23.9733 68.8646 23.9238C68.4193 24.3568 67.9431 24.6815 67.4359 24.8979C66.9288 25.1144 66.3876 25.2227 65.8124 25.2227C64.7981 25.2227 63.9971 24.9474 63.4096 24.397C62.8282 23.8465 62.5375 23.1507 62.5375 22.3096C62.5375 21.7529 62.6705 21.2581 62.9364 20.8252C63.2024 20.3861 63.5735 20.0521 64.0497 19.8232C64.5321 19.5882 65.2248 19.3841 66.1278 19.2109C67.3462 18.9821 68.1905 18.7687 68.6605 18.5708V18.311C68.6605 17.8101 68.5368 17.4544 68.2894 17.2441C68.042 17.0277 67.5751 16.9194 66.8886 16.9194C66.4247 16.9194 66.0629 17.0122 65.8031 17.1978C65.5434 17.3771 65.3331 17.6956 65.1723 18.1533ZM68.6605 20.2686C68.3266 20.3799 67.7977 20.5129 67.0741 20.6675C66.3505 20.8221 65.8773 20.9736 65.6547 21.1221C65.3145 21.3633 65.1444 21.6694 65.1444 22.0405C65.1444 22.4054 65.2805 22.7209 65.5526 22.9868C65.8248 23.2528 66.1711 23.3857 66.5917 23.3857C67.0617 23.3857 67.5101 23.2311 67.9369 22.9219C68.2523 22.6868 68.4595 22.3993 68.5585 22.0591C68.6265 21.8364 68.6605 21.4128 68.6605 20.7881V20.2686ZM82.9521 25H80.3452V19.9717C80.3452 18.9079 80.2895 18.2214 80.1782 17.9121C80.0668 17.5967 79.8844 17.3524 79.6308 17.1792C79.3834 17.006 79.0834 16.9194 78.7309 16.9194C78.2794 16.9194 77.8743 17.0431 77.5156 17.2905C77.1569 17.5379 76.9095 17.8657 76.7734 18.2739C76.6435 18.6821 76.5786 19.4367 76.5786 20.5376V25H73.9716V15.1475H76.393V16.5947C77.2527 15.4814 78.3351 14.9248 79.6401 14.9248C80.2153 14.9248 80.741 15.0299 81.2172 15.2402C81.6935 15.4443 82.0522 15.7072 82.2934 16.0288C82.5408 16.3504 82.7109 16.7153 82.8037 17.1235C82.9026 17.5317 82.9521 18.1162 82.9521 18.877V25ZM85.7954 13.8115V11.3994H88.4024V13.8115H85.7954ZM85.7954 25V15.1475H88.4024V25H85.7954ZM99.8643 18.0605L97.2945 18.5244C97.2079 18.0111 97.01 17.6245 96.7008 17.3647C96.3977 17.105 96.0019 16.9751 95.5133 16.9751C94.8638 16.9751 94.3443 17.2008 93.9547 17.6523C93.5712 18.0977 93.3795 18.846 93.3795 19.8975C93.3795 21.0664 93.5743 21.8921 93.9639 22.3745C94.3598 22.8569 94.8886 23.0981 95.5504 23.0981C96.0452 23.0981 96.4503 22.959 96.7657 22.6807C97.0811 22.3962 97.3038 21.9106 97.4337 21.2241L99.9942 21.6602C99.7283 22.8353 99.218 23.7228 98.4635 24.3228C97.7089 24.9227 96.6977 25.2227 95.4298 25.2227C93.9887 25.2227 92.8383 24.7681 91.9786 23.8589C91.1251 22.9497 90.6983 21.6911 90.6983 20.083C90.6983 18.4564 91.1282 17.1916 91.9879 16.2886C92.8476 15.3794 94.0103 14.9248 95.4761 14.9248C96.676 14.9248 97.6285 15.1846 98.3336 15.7041C99.0448 16.2174 99.5551 17.0029 99.8643 18.0605ZM103.988 18.1533L101.622 17.7266C101.888 16.7741 102.346 16.069 102.995 15.6113C103.645 15.1536 104.61 14.9248 105.89 14.9248C107.053 14.9248 107.918 15.064 108.487 15.3423C109.056 15.6144 109.455 15.9639 109.684 16.3906C109.919 16.8112 110.037 17.5874 110.037 18.7192L110.009 21.7622C110.009 22.6281 110.049 23.2682 110.13 23.6826C110.216 24.0908 110.374 24.5299 110.603 25H108.024C107.956 24.8268 107.872 24.5701 107.773 24.23C107.73 24.0754 107.699 23.9733 107.68 23.9238C107.235 24.3568 106.759 24.6815 106.252 24.8979C105.744 25.1144 105.203 25.2227 104.628 25.2227C103.614 25.2227 102.813 24.9474 102.225 24.397C101.644 23.8465 101.353 23.1507 101.353 22.3096C101.353 21.7529 101.486 21.2581 101.752 20.8252C102.018 20.3861 102.389 20.0521 102.865 19.8232C103.348 19.5882 104.04 19.3841 104.943 19.2109C106.162 18.9821 107.006 18.7687 107.476 18.5708V18.311C107.476 17.8101 107.353 17.4544 107.105 17.2441C106.858 17.0277 106.391 16.9194 105.704 16.9194C105.24 16.9194 104.879 17.0122 104.619 17.1978C104.359 17.3771 104.149 17.6956 103.988 18.1533ZM107.476 20.2686C107.142 20.3799 106.613 20.5129 105.89 20.6675C105.166 20.8221 104.693 20.9736 104.47 21.1221C104.13 21.3633 103.96 21.6694 103.96 22.0405C103.96 22.4054 104.096 22.7209 104.368 22.9868C104.64 23.2528 104.987 23.3857 105.407 23.3857C105.877 23.3857 106.326 23.2311 106.753 22.9219C107.068 22.6868 107.275 22.3993 107.374 22.0591C107.442 21.8364 107.476 21.4128 107.476 20.7881V20.2686ZM112.806 25V11.3994H115.413V25H112.806Z" fill="#A6A6A6"/>
<path d="M13.8507 25H13.6507V25.2H13.8507V25ZM13.8507 11.3994V11.1994H13.6507V11.3994H13.8507ZM17.9606 11.3994L18.1539 11.348L18.1144 11.1994H17.9606V11.3994ZM20.4284 20.6768L20.2351 20.7282L20.4295 21.4589L20.6218 20.7276L20.4284 20.6768ZM22.8683 11.3994V11.1994H22.7141L22.6749 11.3485L22.8683 11.3994ZM26.9875 11.3994H27.1875V11.1994H26.9875V11.3994ZM26.9875 25V25.2H27.1875V25H26.9875ZM24.4362 25H24.2362V25.2H24.4362V25ZM24.4362 14.2939H24.6362L24.2423 14.245L24.4362 14.2939ZM21.7365 25V25.2H21.8923L21.9304 25.0489L21.7365 25ZM19.0924 25L18.8985 25.0487L18.9365 25.2H19.0924V25ZM16.402 14.2939L16.596 14.2452L16.202 14.2939H16.402ZM16.402 25V25.2H16.602V25H16.402ZM14.0507 25V11.3994H13.6507V25H14.0507ZM13.8507 11.5994H17.9606V11.1994H13.8507V11.5994ZM17.7673 11.4508L20.2351 20.7282L20.6217 20.6253L18.1539 11.348L17.7673 11.4508ZM20.6218 20.7276L23.0617 11.4503L22.6749 11.3485L20.2349 20.6259L20.6218 20.7276ZM22.8683 11.5994H26.9875V11.1994H22.8683V11.5994ZM26.7875 11.3994V25H27.1875V11.3994H26.7875ZM26.9875 24.8H24.4362V25.2H26.9875V24.8ZM24.6362 25V14.2939H24.2362V25H24.6362ZM24.2423 14.245L21.5425 24.9511L21.9304 25.0489L24.6301 14.3428L24.2423 14.245ZM21.7365 24.8H19.0924V25.2H21.7365V24.8ZM19.2864 24.9513L16.596 14.2452L16.208 14.3427L18.8985 25.0487L19.2864 24.9513ZM16.202 14.2939V25H16.602V14.2939H16.202ZM16.402 24.8H13.8507V25.2H16.402V24.8ZM35.592 21.8643L35.6251 21.667L35.4491 21.6375L35.3998 21.809L35.592 21.8643ZM38.1897 22.3003L38.3784 22.3665L38.457 22.1424L38.2228 22.1031L38.1897 22.3003ZM36.6032 24.4805L36.7168 24.6451L36.7171 24.6449L36.6032 24.4805ZM30.0998 23.5435L29.9378 23.6608L29.9387 23.6619L30.0998 23.5435ZM30.406 16.3164L30.5527 16.4523L30.5532 16.4518L30.406 16.3164ZM37.1135 16.3813L36.9628 16.5128L36.9632 16.5133L37.1135 16.3813ZM38.3288 20.8252V21.0252H38.5251L38.5288 20.8289L38.3288 20.8252ZM31.7976 20.8252V20.6252H31.5927L31.5976 20.83L31.7976 20.8252ZM32.4284 22.6343L32.2819 22.7704L32.2829 22.7714L32.4284 22.6343ZM35.7404 19.2295V19.4295H35.9454L35.9404 19.2246L35.7404 19.2295ZM35.156 17.5132L35.0101 17.65L35.0111 17.6511L35.156 17.5132ZM31.844 19.2295L31.644 19.2312L31.6457 19.4295H31.844V19.2295ZM35.5589 22.0615L38.1566 22.4975L38.2228 22.1031L35.6251 21.667L35.5589 22.0615ZM38.0009 22.2341C37.6788 23.1528 37.1734 23.8425 36.4894 24.316L36.7171 24.6449C37.4804 24.1165 38.0326 23.3527 38.3784 22.3665L38.0009 22.2341ZM36.4897 24.3158C35.8129 24.7826 34.9552 25.0227 33.9035 25.0227V25.4227C35.0166 25.4227 35.9586 25.168 36.7168 24.6451L36.4897 24.3158ZM33.9035 25.0227C32.2374 25.0227 31.037 24.4812 30.261 23.425L29.9387 23.6619C30.8078 24.8447 32.1433 25.4227 33.9035 25.4227V25.0227ZM30.2618 23.4262C29.6424 22.5708 29.3257 21.4827 29.3257 20.1479H28.9257C28.9257 21.5469 29.2584 22.7225 29.9378 23.6608L30.2618 23.4262ZM29.3257 20.1479C29.3257 18.55 29.7427 17.3269 30.5527 16.4523L30.2592 16.1805C29.3622 17.1491 28.9257 18.4803 28.9257 20.1479H29.3257ZM30.5532 16.4518C31.3673 15.5669 32.3925 15.1248 33.6438 15.1248V14.7248C32.285 14.7248 31.1517 15.2105 30.2588 16.181L30.5532 16.4518ZM33.6438 15.1248C35.0606 15.1248 36.1589 15.5916 36.9628 16.5128L37.2642 16.2499C36.3734 15.2291 35.1585 14.7248 33.6438 14.7248V15.1248ZM36.9632 16.5133C37.7635 17.4246 38.1655 18.847 38.1289 20.8215L38.5288 20.8289C38.5663 18.808 38.1581 17.2678 37.2638 16.2494L36.9632 16.5133ZM38.3288 20.6252H31.7976V21.0252H38.3288V20.6252ZM31.5976 20.83C31.617 21.6365 31.8375 22.2918 32.2819 22.7704L32.575 22.4982C32.2154 22.1109 32.0153 21.5601 31.9975 20.8204L31.5976 20.83ZM32.2829 22.7714C32.7236 23.2393 33.2778 23.4744 33.9314 23.4744V23.0744C33.3851 23.0744 32.9373 22.8827 32.574 22.4971L32.2829 22.7714ZM33.9314 23.4744C34.378 23.4744 34.7672 23.3517 35.0861 23.0966L34.8362 22.7843C34.5984 22.9745 34.3011 23.0744 33.9314 23.0744V23.4744ZM35.0861 23.0966C35.4082 22.8389 35.6354 22.4372 35.7842 21.9195L35.3998 21.809C35.2641 22.2809 35.0707 22.5966 34.8362 22.7843L35.0861 23.0966ZM35.9404 19.2246C35.9211 18.4404 35.7178 17.8131 35.3008 17.3753L35.0111 17.6511C35.3363 17.9926 35.5227 18.5095 35.5405 19.2344L35.9404 19.2246ZM35.3019 17.3764C34.8938 16.9411 34.3899 16.7194 33.8015 16.7194V17.1194C34.2769 17.1194 34.6759 17.2936 35.0101 17.65L35.3019 17.3764ZM33.8015 16.7194C33.1771 16.7194 32.6523 16.9497 32.2423 17.4076L32.5403 17.6744C32.8725 17.3035 33.2878 17.1194 33.8015 17.1194V16.7194ZM32.2423 17.4076C31.8295 17.8686 31.6375 18.4845 31.644 19.2312L32.044 19.2278C32.0381 18.552 32.2109 18.0422 32.5403 17.6744L32.2423 17.4076ZM31.844 19.4295H35.7404V19.0295H31.844V19.4295ZM49.2434 18.0605L49.279 18.2574L49.4978 18.2179L49.4354 18.0044L49.2434 18.0605ZM46.6736 18.5244L46.4764 18.5577L46.51 18.7572L46.7091 18.7212L46.6736 18.5244ZM46.0799 17.3647L45.9497 17.5166L45.9512 17.5179L46.0799 17.3647ZM43.3338 17.6523L43.1824 17.5217L43.1822 17.5218L43.3338 17.6523ZM43.343 22.3745L43.1874 22.5002L43.1884 22.5014L43.343 22.3745ZM46.1448 22.6807L46.2771 22.8306L46.2788 22.8292L46.1448 22.6807ZM46.8128 21.2241L46.8463 21.027L46.6528 20.994L46.6163 21.1869L46.8128 21.2241ZM49.3733 21.6602L49.5684 21.7043L49.615 21.4984L49.4069 21.463L49.3733 21.6602ZM47.8425 24.3228L47.7181 24.1662L47.8425 24.3228ZM41.3577 23.8589L41.2119 23.9958L41.2124 23.9963L41.3577 23.8589ZM41.367 16.2886L41.5118 16.4265L41.5123 16.426L41.367 16.2886ZM47.7127 15.7041L47.594 15.8651L47.5956 15.8663L47.7127 15.7041ZM49.2079 17.8637L46.6381 18.3276L46.7091 18.7212L49.279 18.2574L49.2079 17.8637ZM46.8708 18.4911C46.7787 17.9448 46.5636 17.5099 46.2085 17.2116L45.9512 17.5179C46.2146 17.7392 46.3954 18.0773 46.4764 18.5577L46.8708 18.4911ZM46.21 17.2129C45.8631 16.9155 45.4176 16.7751 44.8924 16.7751V17.1751C45.3443 17.1751 45.6905 17.2944 45.9497 17.5166L46.21 17.2129ZM44.8924 16.7751C44.1906 16.7751 43.6136 17.0219 43.1824 17.5217L43.4852 17.783C43.8332 17.3798 44.2953 17.1751 44.8924 17.1751V16.7751ZM43.1822 17.5218C42.7508 18.0228 42.5586 18.832 42.5586 19.8975H42.9586C42.9586 18.86 43.1498 18.1725 43.4853 17.7828L43.1822 17.5218ZM42.5586 19.8975C42.5586 21.077 42.7528 21.9621 43.1875 22.5002L43.4986 22.2488C43.1539 21.8221 42.9586 21.0558 42.9586 19.8975H42.5586ZM43.1884 22.5014C43.6248 23.0332 44.2119 23.2981 44.9295 23.2981V22.8981C44.3234 22.8981 43.8529 22.6807 43.4977 22.2476L43.1884 22.5014ZM44.9295 23.2981C45.4639 23.2981 45.9189 23.1467 46.2771 22.8306L46.0125 22.5307C45.7399 22.7712 45.3846 22.8981 44.9295 22.8981V23.2981ZM46.2788 22.8292C46.6417 22.5018 46.8761 21.9654 47.0093 21.2613L46.6163 21.1869C46.4897 21.8559 46.2788 22.2905 46.0108 22.5322L46.2788 22.8292ZM46.7792 21.4213L49.3397 21.8573L49.4069 21.463L46.8463 21.027L46.7792 21.4213ZM49.1782 21.616C48.9198 22.7581 48.4288 23.6011 47.7181 24.1662L47.967 24.4793C48.7654 23.8445 49.2949 22.9125 49.5684 21.7043L49.1782 21.616ZM47.7181 24.1662C47.0087 24.7302 46.0459 25.0227 44.8089 25.0227V25.4227C46.1076 25.4227 47.1673 25.1152 47.967 24.4793L47.7181 24.1662ZM44.8089 25.0227C43.4136 25.0227 42.3191 24.5845 41.503 23.7215L41.2124 23.9963C42.1157 24.9516 43.3219 25.4227 44.8089 25.4227V25.0227ZM41.5035 23.722C40.694 22.8597 40.2774 21.6555 40.2774 20.083H39.8774C39.8774 21.7267 40.3144 23.0397 41.2119 23.9958L41.5035 23.722ZM40.2774 20.083C40.2774 18.4916 40.6973 17.282 41.5118 16.4265L41.2221 16.1507C40.3172 17.1011 39.8774 18.4212 39.8774 20.083H40.2774ZM41.5123 16.426C42.3277 15.5636 43.4342 15.1248 44.8552 15.1248V14.7248C43.3447 14.7248 42.1256 15.1951 41.2216 16.1512L41.5123 16.426ZM44.8552 15.1248C46.0279 15.1248 46.934 15.3788 47.594 15.8651L47.8313 15.5431C47.0812 14.9904 46.0823 14.7248 44.8552 14.7248V15.1248ZM47.5956 15.8663C48.2624 16.3475 48.7514 17.0906 49.0515 18.1167L49.4354 18.0044C49.1169 16.9152 48.5854 16.0874 47.8297 15.5419L47.5956 15.8663ZM54.0164 11.3994H54.2164V11.1994H54.0164V11.3994ZM54.0164 16.3999H53.8164V16.9414L54.1684 16.5299L54.0164 16.3999ZM59.7406 16.1123L59.5764 16.2266L59.5778 16.2286L59.7406 16.1123ZM60.2415 17.2627L60.0456 17.303L60.0462 17.3058L60.2415 17.2627ZM60.3807 25V25.2H60.5807V25H60.3807ZM57.7738 25H57.5738V25.2H57.7738V25ZM57.0965 17.1699L56.9846 17.3358L56.9894 17.3388L57.0965 17.1699ZM54.9998 17.2349L55.105 17.405L54.9998 17.2349ZM54.2484 18.1904L54.0612 18.1199L54.0607 18.1214L54.2484 18.1904ZM54.0164 25V25.2H54.2164V25H54.0164ZM51.4095 25H51.2095V25.2H51.4095V25ZM51.4095 11.3994V11.1994H51.2095V11.3994H51.4095ZM53.8164 11.3994V16.3999H54.2164V11.3994H53.8164ZM54.1684 16.5299C54.9762 15.5856 55.9278 15.1248 57.0316 15.1248V14.7248C55.7975 14.7248 54.739 15.2474 53.8645 16.2699L54.1684 16.5299ZM57.0316 15.1248C57.6063 15.1248 58.1184 15.2313 58.5713 15.4404L58.7389 15.0772C58.227 14.8409 57.6567 14.7248 57.0316 14.7248V15.1248ZM58.5713 15.4404C59.0297 15.6519 59.3602 15.9161 59.5764 16.2266L59.9047 15.998C59.6385 15.6158 59.2454 15.3109 58.7389 15.0772L58.5713 15.4404ZM59.5778 16.2286C59.8088 16.552 59.9646 16.9095 60.0456 17.303L60.4374 17.2224C60.3453 16.7747 60.1671 16.3653 59.9033 15.9961L59.5778 16.2286ZM60.0462 17.3058C60.1341 17.7041 60.1807 18.3384 60.1807 19.2202H60.5807C60.5807 18.3331 60.5345 17.6625 60.4368 17.2196L60.0462 17.3058ZM60.1807 19.2202V25H60.5807V19.2202H60.1807ZM60.3807 24.8H57.7738V25.2H60.3807V24.8ZM57.9738 25V19.7954H57.5738V25H57.9738ZM57.9738 19.7954C57.9738 19.2764 57.9614 18.8488 57.9361 18.514C57.9112 18.1847 57.8729 17.928 57.8138 17.7616L57.4369 17.8956C57.4767 18.0076 57.5126 18.2178 57.5372 18.5441C57.5614 18.8649 57.5738 19.2815 57.5738 19.7954H57.9738ZM57.8138 17.7616C57.6996 17.4404 57.4943 17.1853 57.2036 17.001L56.9894 17.3388C57.2059 17.4761 57.3532 17.6601 57.4369 17.8956L57.8138 17.7616ZM57.2084 17.0042C56.9202 16.8096 56.5661 16.7194 56.1595 16.7194V17.1194C56.5074 17.1194 56.778 17.1962 56.9846 17.3357L57.2084 17.0042ZM56.1595 16.7194C55.6926 16.7194 55.269 16.8333 54.8947 17.0647L55.105 17.405C55.411 17.2158 55.7605 17.1194 56.1595 17.1194V16.7194ZM54.8947 17.0647C54.5117 17.3015 54.2353 17.6579 54.0612 18.1199L54.4355 18.261C54.583 17.8695 54.8076 17.5888 55.105 17.405L54.8947 17.0647ZM54.0607 18.1214C53.8937 18.5756 53.8164 19.2286 53.8164 20.0645H54.2164C54.2164 19.2427 54.2938 18.6464 54.4361 18.2594L54.0607 18.1214ZM53.8164 20.0645V25H54.2164V20.0645H53.8164ZM54.0164 24.8H51.4095V25.2H54.0164V24.8ZM51.6095 25V11.3994H51.2095V25H51.6095ZM51.4095 11.5994H54.0164V11.1994H51.4095V11.5994ZM65.1723 18.1533L65.1367 18.3501L65.3045 18.3804L65.3609 18.2196L65.1723 18.1533ZM62.8065 17.7266L62.6139 17.6728L62.5548 17.8844L62.771 17.9234L62.8065 17.7266ZM64.1796 15.6113L64.0644 15.4478L64.1796 15.6113ZM69.6718 15.3423L69.5839 15.522L69.5855 15.5227L69.6718 15.3423ZM70.8685 16.3906L70.6923 16.4852L70.694 16.4882L70.8685 16.3906ZM71.2211 18.7192L71.4211 18.7211V18.7192H71.2211ZM71.1933 21.7622L70.9933 21.7604V21.7622H71.1933ZM71.3139 23.6826L71.1175 23.7207L71.1182 23.7241L71.3139 23.6826ZM71.787 25V25.2H72.1068L71.9668 24.9125L71.787 25ZM69.2079 25L69.0218 25.0731L69.0716 25.2H69.2079V25ZM68.9574 24.23L68.7648 24.2839L68.7654 24.2858L68.9574 24.23ZM68.8646 23.9238L69.0519 23.8536L68.9445 23.5672L68.7252 23.7804L68.8646 23.9238ZM63.4096 24.397L63.2721 24.5422L63.2728 24.5429L63.4096 24.397ZM62.9364 20.8252L63.1068 20.9299L63.1075 20.9288L62.9364 20.8252ZM64.0497 19.8232L64.1363 20.0035L64.1373 20.003L64.0497 19.8232ZM66.1278 19.2109L66.0909 19.0144L66.0902 19.0145L66.1278 19.2109ZM68.6605 18.5708L68.7381 18.7551L68.8605 18.7036V18.5708H68.6605ZM68.2894 17.2441L68.1577 17.3947L68.1599 17.3965L68.2894 17.2441ZM65.8031 17.1978L65.9168 17.3624L65.9194 17.3605L65.8031 17.1978ZM68.6605 20.2686H68.8605V19.9911L68.5973 20.0788L68.6605 20.2686ZM65.6547 21.1221L65.5437 20.9556L65.539 20.9589L65.6547 21.1221ZM67.9369 22.9219L68.0543 23.0838L68.0564 23.0823L67.9369 22.9219ZM68.5585 22.0591L68.3672 22.0006L68.3664 22.0032L68.5585 22.0591ZM65.2078 17.9565L62.842 17.5297L62.771 17.9234L65.1367 18.3501L65.2078 17.9565ZM62.9992 17.7803C63.2558 16.8611 63.6915 16.2 64.2948 15.7748L64.0644 15.4478C63.3688 15.9381 62.8891 16.6871 62.6139 17.6728L62.9992 17.7803ZM64.2948 15.7748C64.8955 15.3514 65.812 15.1248 67.0741 15.1248V14.7248C65.7757 14.7248 64.7624 14.9559 64.0644 15.4478L64.2948 15.7748ZM67.0741 15.1248C68.2278 15.1248 69.0565 15.264 69.5839 15.5219L69.7596 15.1626C69.149 14.8639 68.246 14.7248 67.0741 14.7248V15.1248ZM69.5855 15.5227C70.1277 15.782 70.4889 16.1058 70.6923 16.4851L71.0448 16.2961C70.7905 15.822 70.3538 15.4468 69.7581 15.1619L69.5855 15.5227ZM70.694 16.4882C70.7947 16.6685 70.8781 16.9408 70.9352 17.3181C70.992 17.6931 71.0211 18.1594 71.0211 18.7192H71.4211C71.4211 18.1473 71.3914 17.6596 71.3307 17.2583C71.2703 16.8595 71.1774 16.5334 71.0431 16.2931L70.694 16.4882ZM71.0211 18.7174L70.9933 21.7604L71.3932 21.764L71.4211 18.7211L71.0211 18.7174ZM70.9933 21.7622C70.9933 22.6305 71.0333 23.2866 71.1175 23.7207L71.5102 23.6445C71.4336 23.2499 71.3933 22.6257 71.3933 21.7622H70.9933ZM71.1182 23.7241C71.2089 24.1517 71.3729 24.6064 71.6072 25.0875L71.9668 24.9125C71.7434 24.4535 71.592 24.03 71.5095 23.6411L71.1182 23.7241ZM71.787 24.8H69.2079V25.2H71.787V24.8ZM69.3941 24.9269C69.3294 24.7623 69.2479 24.5127 69.1495 24.1741L68.7654 24.2858C68.8648 24.6276 68.9503 24.8913 69.0218 25.0731L69.3941 24.9269ZM69.15 24.1761C69.1071 24.0229 69.074 23.9125 69.0519 23.8536L68.6774 23.9941C68.6924 24.0341 68.7211 24.1278 68.7648 24.2839L69.15 24.1761ZM68.7252 23.7804C68.2953 24.1984 67.8393 24.5083 67.3574 24.714L67.5144 25.0819C68.0469 24.8546 68.5433 24.5152 69.0041 24.0672L68.7252 23.7804ZM67.3574 24.714C66.8761 24.9194 66.3618 25.0227 65.8124 25.0227V25.4227C66.4134 25.4227 66.9814 25.3094 67.5144 25.0819L67.3574 24.714ZM65.8124 25.0227C64.8351 25.0227 64.0878 24.7584 63.5463 24.251L63.2728 24.5429C63.9064 25.1365 64.761 25.4227 65.8124 25.4227V25.0227ZM63.5471 24.2517C63.0078 23.7412 62.7375 23.0989 62.7375 22.3096H62.3375C62.3375 23.2025 62.6486 23.9519 63.2721 24.5422L63.5471 24.2517ZM62.7375 22.3096C62.7375 21.7862 62.8621 21.3284 63.1068 20.9299L62.766 20.7205C62.4789 21.1879 62.3375 21.7196 62.3375 22.3096H62.7375ZM63.1075 20.9288C63.3527 20.5239 63.694 20.2161 64.1363 20.0035L63.9631 19.643C63.4529 19.8881 63.052 20.2482 62.7653 20.7216L63.1075 20.9288ZM64.1373 20.003C64.5966 19.7793 65.2694 19.5792 66.1655 19.4074L66.0902 19.0145C65.1803 19.189 64.4677 19.3971 63.9621 19.6434L64.1373 20.003ZM66.1647 19.4075C67.3829 19.1787 68.2463 18.9622 68.7381 18.7551L68.5829 18.3865C68.1347 18.5752 67.3095 18.7855 66.0909 19.0144L66.1647 19.4075ZM68.8605 18.5708V18.311H68.4605V18.5708H68.8605ZM68.8605 18.311C68.8605 17.7833 68.7307 17.3567 68.419 17.0918L68.1599 17.3965C68.343 17.5521 68.4605 17.8368 68.4605 18.311H68.8605ZM68.4211 17.0936C68.2639 16.9561 68.0507 16.8642 67.7988 16.8058C67.5457 16.7471 67.2411 16.7194 66.8886 16.7194V17.1194C67.2226 17.1194 67.4947 17.1459 67.7085 17.1954C67.9236 17.2453 68.0676 17.3157 68.1577 17.3947L68.4211 17.0936ZM66.8886 16.7194C66.4011 16.7194 65.9928 16.8165 65.6869 17.035L65.9194 17.3605C66.133 17.2079 66.4483 17.1194 66.8886 17.1194V16.7194ZM65.6895 17.0332C65.3808 17.2463 65.1513 17.6095 64.9836 18.087L65.3609 18.2196C65.5148 17.7817 65.7059 17.5079 65.9168 17.3623L65.6895 17.0332ZM68.5973 20.0788C68.2745 20.1864 67.7548 20.3175 67.0323 20.4719L67.1159 20.8631C67.8407 20.7082 68.3786 20.5733 68.7238 20.4583L68.5973 20.0788ZM67.0323 20.4719C66.6668 20.55 66.3607 20.6281 66.1155 20.7066C65.8736 20.7841 65.6785 20.8658 65.5437 20.9557L65.7656 21.2885C65.8535 21.2299 66.0063 21.1616 66.2375 21.0876C66.4655 21.0145 66.7578 20.9396 67.1159 20.8631L67.0323 20.4719ZM65.539 20.9589C65.1535 21.2323 64.9444 21.5958 64.9444 22.0405H65.3444C65.3444 21.743 65.4755 21.4943 65.7704 21.2852L65.539 20.9589ZM64.9444 22.0405C64.9444 22.4618 65.104 22.8281 65.4128 23.1299L65.6924 22.8438C65.4569 22.6137 65.3444 22.3491 65.3444 22.0405H64.9444ZM65.4128 23.1299C65.7264 23.4363 66.1249 23.5857 66.5917 23.5857V23.1857C66.2174 23.1857 65.9231 23.0692 65.6924 22.8438L65.4128 23.1299ZM66.5917 23.5857C67.1089 23.5857 67.5977 23.4147 68.0543 23.0838L67.8195 22.7599C67.4226 23.0476 67.0145 23.1857 66.5917 23.1857V23.5857ZM68.0564 23.0823C68.4027 22.8242 68.6381 22.5015 68.7505 22.1149L68.3664 22.0032C68.281 22.297 68.102 22.5495 67.8174 22.7615L68.0564 23.0823ZM68.7498 22.1175C68.8277 21.8624 68.8605 21.41 68.8605 20.7881H68.4605C68.4605 21.4155 68.4253 21.8105 68.3672 22.0006L68.7498 22.1175ZM68.8605 20.7881V20.2686H68.4605V20.7881H68.8605ZM82.9521 25V25.2H83.1521V25H82.9521ZM80.3452 25H80.1452V25.2H80.3452V25ZM80.1782 17.9121L79.9896 17.9787L79.99 17.9799L80.1782 17.9121ZM79.6308 17.1792L79.5161 17.3431L79.518 17.3444L79.6308 17.1792ZM77.5156 17.2905L77.6291 17.4552L77.5156 17.2905ZM76.7734 18.2739L76.5836 18.2107L76.5828 18.2133L76.7734 18.2739ZM76.5786 25V25.2H76.7786V25H76.5786ZM73.9716 25H73.7716V25.2H73.9716V25ZM73.9716 15.1475V14.9475H73.7716V15.1475H73.9716ZM76.393 15.1475H76.593V14.9475H76.393V15.1475ZM76.393 16.5947H76.193V17.1809L76.5513 16.717L76.393 16.5947ZM81.2172 15.2402L81.1364 15.4232L81.1385 15.4241L81.2172 15.2402ZM82.2934 16.0288L82.1334 16.1488L82.1349 16.1508L82.2934 16.0288ZM82.8037 17.1235L82.6086 17.1679L82.6093 17.1707L82.8037 17.1235ZM82.9521 24.8H80.3452V25.2H82.9521V24.8ZM80.5452 25V19.9717H80.1452V25H80.5452ZM80.5452 19.9717C80.5452 19.4369 80.5312 18.9935 80.5028 18.6428C80.4747 18.2967 80.4315 18.0254 80.3664 17.8444L79.99 17.9799C80.0361 18.108 80.0765 18.3346 80.1041 18.6751C80.1313 19.0109 80.1452 19.4426 80.1452 19.9717H80.5452ZM80.3668 17.8455C80.2426 17.4938 80.0355 17.2134 79.7436 17.014L79.518 17.3444C79.7333 17.4914 79.8911 17.6996 79.9896 17.9787L80.3668 17.8455ZM79.7455 17.0154C79.4591 16.8149 79.1174 16.7194 78.7309 16.7194V17.1194C79.0495 17.1194 79.3077 17.1972 79.5161 17.343L79.7455 17.0154ZM78.7309 16.7194C78.2404 16.7194 77.7954 16.8546 77.402 17.1259L77.6291 17.4552C77.9532 17.2317 78.3184 17.1194 78.7309 17.1194V16.7194ZM77.402 17.1259C77.0081 17.3976 76.7336 17.7607 76.5837 18.2107L76.9631 18.3372C77.0853 17.9707 77.3056 17.6783 77.6291 17.4552L77.402 17.1259ZM76.5828 18.2133C76.4423 18.6548 76.3786 19.4385 76.3786 20.5376H76.7786C76.7786 19.4348 76.8447 18.7095 76.964 18.3346L76.5828 18.2133ZM76.3786 20.5376V25H76.7786V20.5376H76.3786ZM76.5786 24.8H73.9716V25.2H76.5786V24.8ZM74.1716 25V15.1475H73.7716V25H74.1716ZM73.9716 15.3475H76.393V14.9475H73.9716V15.3475ZM76.193 15.1475V16.5947H76.593V15.1475H76.193ZM76.5513 16.717C77.3765 15.6483 78.4024 15.1248 79.6401 15.1248V14.7248C78.2677 14.7248 77.1289 15.3146 76.2347 16.4725L76.5513 16.717ZM79.6401 15.1248C80.1904 15.1248 80.6882 15.2253 81.1364 15.4232L81.298 15.0573C80.7938 14.8346 80.2402 14.7248 79.6401 14.7248V15.1248ZM81.1385 15.4241C81.5916 15.6183 81.9184 15.8622 82.1334 16.1488L82.4534 15.9088C82.1859 15.5522 81.7954 15.2704 81.296 15.0564L81.1385 15.4241ZM82.1349 16.1508C82.3641 16.4487 82.5221 16.7869 82.6086 17.1679L82.9987 17.0792C82.8997 16.6437 82.7175 16.2521 82.4519 15.9069L82.1349 16.1508ZM82.6093 17.1707C82.7026 17.5557 82.7521 18.1215 82.7521 18.877H83.1521C83.1521 18.1109 83.1026 17.5077 82.998 17.0764L82.6093 17.1707ZM82.7521 18.877V25H83.1521V18.877H82.7521ZM85.7954 13.8115H85.5954V14.0115H85.7954V13.8115ZM85.7954 11.3994V11.1994H85.5954V11.3994H85.7954ZM88.4024 11.3994H88.6024V11.1994H88.4024V11.3994ZM88.4024 13.8115V14.0115H88.6024V13.8115H88.4024ZM85.7954 25H85.5954V25.2H85.7954V25ZM85.7954 15.1475V14.9475H85.5954V15.1475H85.7954ZM88.4024 15.1475H88.6024V14.9475H88.4024V15.1475ZM88.4024 25V25.2H88.6024V25H88.4024ZM85.9954 13.8115V11.3994H85.5954V13.8115H85.9954ZM85.7954 11.5994H88.4024V11.1994H85.7954V11.5994ZM88.2024 11.3994V13.8115H88.6024V11.3994H88.2024ZM88.4024 13.6115H85.7954V14.0115H88.4024V13.6115ZM85.9954 25V15.1475H85.5954V25H85.9954ZM85.7954 15.3475H88.4024V14.9475H85.7954V15.3475ZM88.2024 15.1475V25H88.6024V15.1475H88.2024ZM88.4024 24.8H85.7954V25.2H88.4024V24.8ZM99.8643 18.0605L99.8999 18.2574L100.119 18.2179L100.056 18.0044L99.8643 18.0605ZM97.2945 18.5244L97.0973 18.5577L97.1309 18.7572L97.33 18.7212L97.2945 18.5244ZM96.7008 17.3647L96.5706 17.5166L96.5721 17.5179L96.7008 17.3647ZM93.9547 17.6523L93.8032 17.5217L93.8031 17.5218L93.9547 17.6523ZM93.9639 22.3745L93.8083 22.5002L93.8093 22.5014L93.9639 22.3745ZM96.7657 22.6807L96.898 22.8306L96.8997 22.8292L96.7657 22.6807ZM97.4337 21.2241L97.4672 21.027L97.2737 20.994L97.2372 21.1869L97.4337 21.2241ZM99.9942 21.6602L100.189 21.7043L100.236 21.4984L100.028 21.463L99.9942 21.6602ZM98.4635 24.3228L98.339 24.1662L98.4635 24.3228ZM91.9786 23.8589L91.8328 23.9958L91.8333 23.9963L91.9786 23.8589ZM91.9879 16.2886L92.1327 16.4265L92.1332 16.426L91.9879 16.2886ZM98.3336 15.7041L98.2149 15.8651L98.2165 15.8663L98.3336 15.7041ZM99.8288 17.8637L97.259 18.3276L97.33 18.7212L99.8999 18.2574L99.8288 17.8637ZM97.4917 18.4911C97.3996 17.9448 97.1845 17.5099 96.8294 17.2116L96.5721 17.5179C96.8355 17.7392 97.0163 18.0773 97.0973 18.5577L97.4917 18.4911ZM96.8309 17.2129C96.484 16.9155 96.0385 16.7751 95.5133 16.7751V17.1751C95.9652 17.1751 96.3114 17.2944 96.5706 17.5166L96.8309 17.2129ZM95.5133 16.7751C94.8115 16.7751 94.2345 17.0219 93.8032 17.5217L94.1061 17.783C94.4541 17.3798 94.9162 17.1751 95.5133 17.1751V16.7751ZM93.8031 17.5218C93.3717 18.0228 93.1795 18.832 93.1795 19.8975H93.5795C93.5795 18.86 93.7707 18.1725 94.1062 17.7828L93.8031 17.5218ZM93.1795 19.8975C93.1795 21.077 93.3737 21.9621 93.8084 22.5002L94.1195 22.2488C93.7748 21.8221 93.5795 21.0558 93.5795 19.8975H93.1795ZM93.8093 22.5014C94.2457 23.0332 94.8329 23.2981 95.5504 23.2981V22.8981C94.9443 22.8981 94.4738 22.6807 94.1186 22.2476L93.8093 22.5014ZM95.5504 23.2981C96.0848 23.2981 96.5398 23.1467 96.898 22.8306L96.6334 22.5307C96.3608 22.7712 96.0055 22.8981 95.5504 22.8981V23.2981ZM96.8997 22.8292C97.2626 22.5018 97.497 21.9654 97.6302 21.2613L97.2372 21.1869C97.1106 21.8559 96.8997 22.2905 96.6317 22.5322L96.8997 22.8292ZM97.4001 21.4213L99.9606 21.8573L100.028 21.463L97.4672 21.027L97.4001 21.4213ZM99.7991 21.616C99.5407 22.7581 99.0497 23.6011 98.339 24.1662L98.5879 24.4793C99.3863 23.8445 99.9159 22.9125 100.189 21.7043L99.7991 21.616ZM98.339 24.1662C97.6296 24.7302 96.6668 25.0227 95.4298 25.0227V25.4227C96.7285 25.4227 97.7882 25.1152 98.5879 24.4793L98.339 24.1662ZM95.4298 25.0227C94.0345 25.0227 92.94 24.5845 92.1239 23.7215L91.8333 23.9963C92.7366 24.9516 93.9428 25.4227 95.4298 25.4227V25.0227ZM92.1244 23.722C91.3149 22.8597 90.8983 21.6555 90.8983 20.083H90.4983C90.4983 21.7267 90.9353 23.0397 91.8328 23.9958L92.1244 23.722ZM90.8983 20.083C90.8983 18.4916 91.3182 17.282 92.1327 16.4265L91.843 16.1507C90.9381 17.1011 90.4983 18.4212 90.4983 20.083H90.8983ZM92.1332 16.426C92.9486 15.5636 94.055 15.1248 95.4761 15.1248V14.7248C93.9656 14.7248 92.7465 15.1951 91.8425 16.1512L92.1332 16.426ZM95.4761 15.1248C96.6488 15.1248 97.5549 15.3788 98.2149 15.8651L98.4522 15.5431C97.7021 14.9904 96.7032 14.7248 95.4761 14.7248V15.1248ZM98.2165 15.8663C98.8833 16.3475 99.3723 17.0906 99.6724 18.1167L100.056 18.0044C99.7378 16.9152 99.2063 16.0874 98.4506 15.5419L98.2165 15.8663ZM103.988 18.1533L103.952 18.3501L104.12 18.3804L104.177 18.2196L103.988 18.1533ZM101.622 17.7266L101.43 17.6728L101.37 17.8844L101.587 17.9234L101.622 17.7266ZM102.995 15.6113L102.88 15.4478L102.995 15.6113ZM108.487 15.3423L108.4 15.522L108.401 15.5227L108.487 15.3423ZM109.684 16.3906L109.508 16.4852L109.51 16.4882L109.684 16.3906ZM110.037 18.7192L110.237 18.7211V18.7192H110.037ZM110.009 21.7622L109.809 21.7604V21.7622H110.009ZM110.13 23.6826L109.933 23.7207L109.934 23.7241L110.13 23.6826ZM110.603 25V25.2H110.922L110.782 24.9125L110.603 25ZM108.024 25L107.837 25.0731L107.887 25.2H108.024V25ZM107.773 24.23L107.58 24.2839L107.581 24.2858L107.773 24.23ZM107.68 23.9238L107.868 23.8536L107.76 23.5672L107.541 23.7804L107.68 23.9238ZM102.225 24.397L102.088 24.5422L102.088 24.5429L102.225 24.397ZM101.752 20.8252L101.922 20.9299L101.923 20.9288L101.752 20.8252ZM102.865 19.8232L102.952 20.0035L102.953 20.003L102.865 19.8232ZM104.943 19.2109L104.907 19.0144L104.906 19.0145L104.943 19.2109ZM107.476 18.5708L107.554 18.7551L107.676 18.7036V18.5708H107.476ZM107.105 17.2441L106.973 17.3947L106.976 17.3965L107.105 17.2441ZM104.619 17.1978L104.732 17.3624L104.735 17.3605L104.619 17.1978ZM107.476 20.2686H107.676V19.9911L107.413 20.0788L107.476 20.2686ZM104.47 21.1221L104.359 20.9556L104.355 20.9589L104.47 21.1221ZM106.753 22.9219L106.87 23.0838L106.872 23.0823L106.753 22.9219ZM107.374 22.0591L107.183 22.0006L107.182 22.0032L107.374 22.0591ZM104.023 17.9565L101.658 17.5297L101.587 17.9234L103.952 18.3501L104.023 17.9565ZM101.815 17.7803C102.071 16.8611 102.507 16.2 103.11 15.7748L102.88 15.4478C102.184 15.9381 101.705 16.6871 101.43 17.6728L101.815 17.7803ZM103.11 15.7748C103.711 15.3514 104.628 15.1248 105.89 15.1248V14.7248C104.591 14.7248 103.578 14.9559 102.88 15.4478L103.11 15.7748ZM105.89 15.1248C107.043 15.1248 107.872 15.264 108.4 15.5219L108.575 15.1626C107.965 14.8639 107.062 14.7248 105.89 14.7248V15.1248ZM108.401 15.5227C108.943 15.782 109.305 16.1058 109.508 16.4851L109.86 16.2961C109.606 15.822 109.17 15.4468 108.574 15.1619L108.401 15.5227ZM109.51 16.4882C109.61 16.6685 109.694 16.9408 109.751 17.3181C109.808 17.6931 109.837 18.1594 109.837 18.7192H110.237C110.237 18.1473 110.207 17.6596 110.146 17.2583C110.086 16.8595 109.993 16.5334 109.859 16.2931L109.51 16.4882ZM109.837 18.7174L109.809 21.7604L110.209 21.764L110.237 18.7211L109.837 18.7174ZM109.809 21.7622C109.809 22.6305 109.849 23.2866 109.933 23.7207L110.326 23.6445C110.249 23.2499 110.209 22.6257 110.209 21.7622H109.809ZM109.934 23.7241C110.025 24.1517 110.189 24.6064 110.423 25.0875L110.782 24.9125C110.559 24.4535 110.408 24.03 110.325 23.6411L109.934 23.7241ZM110.603 24.8H108.024V25.2H110.603V24.8ZM108.21 24.9269C108.145 24.7623 108.064 24.5127 107.965 24.1741L107.581 24.2858C107.68 24.6276 107.766 24.8913 107.837 25.0731L108.21 24.9269ZM107.966 24.1761C107.923 24.0229 107.89 23.9125 107.868 23.8536L107.493 23.9941C107.508 24.0341 107.537 24.1278 107.58 24.2839L107.966 24.1761ZM107.541 23.7804C107.111 24.1984 106.655 24.5083 106.173 24.714L106.33 25.0819C106.863 24.8546 107.359 24.5152 107.82 24.0672L107.541 23.7804ZM106.173 24.714C105.692 24.9194 105.177 25.0227 104.628 25.0227V25.4227C105.229 25.4227 105.797 25.3094 106.33 25.0819L106.173 24.714ZM104.628 25.0227C103.651 25.0227 102.904 24.7584 102.362 24.251L102.088 24.5429C102.722 25.1365 103.577 25.4227 104.628 25.4227V25.0227ZM102.363 24.2517C101.823 23.7412 101.553 23.0989 101.553 22.3096H101.153C101.153 23.2025 101.464 23.9519 102.088 24.5422L102.363 24.2517ZM101.553 22.3096C101.553 21.7862 101.678 21.3284 101.922 20.9299L101.582 20.7205C101.295 21.1879 101.153 21.7196 101.153 22.3096H101.553ZM101.923 20.9288C102.168 20.5239 102.51 20.2161 102.952 20.0035L102.779 19.643C102.269 19.8881 101.868 20.2482 101.581 20.7216L101.923 20.9288ZM102.953 20.003C103.412 19.7793 104.085 19.5792 104.981 19.4074L104.906 19.0145C103.996 19.189 103.283 19.3971 102.778 19.6434L102.953 20.003ZM104.98 19.4075C106.199 19.1787 107.062 18.9622 107.554 18.7551L107.399 18.3865C106.95 18.5752 106.125 18.7855 104.907 19.0144L104.98 19.4075ZM107.676 18.5708V18.311H107.276V18.5708H107.676ZM107.676 18.311C107.676 17.7833 107.546 17.3567 107.235 17.0918L106.976 17.3965C107.159 17.5521 107.276 17.8368 107.276 18.311H107.676ZM107.237 17.0936C107.08 16.9561 106.866 16.8642 106.614 16.8058C106.361 16.7471 106.057 16.7194 105.704 16.7194V17.1194C106.038 17.1194 106.31 17.1459 106.524 17.1954C106.739 17.2453 106.883 17.3157 106.973 17.3947L107.237 17.0936ZM105.704 16.7194C105.217 16.7194 104.808 16.8165 104.503 17.035L104.735 17.3605C104.949 17.2079 105.264 17.1194 105.704 17.1194V16.7194ZM104.505 17.0332C104.196 17.2463 103.967 17.6095 103.799 18.087L104.177 18.2196C104.33 17.7817 104.522 17.5079 104.732 17.3623L104.505 17.0332ZM107.413 20.0788C107.09 20.1864 106.57 20.3175 105.848 20.4719L105.932 20.8631C106.656 20.7082 107.194 20.5733 107.539 20.4583L107.413 20.0788ZM105.848 20.4719C105.482 20.55 105.176 20.6281 104.931 20.7066C104.689 20.7841 104.494 20.8658 104.359 20.9557L104.581 21.2885C104.669 21.2299 104.822 21.1616 105.053 21.0876C105.281 21.0145 105.573 20.9396 105.932 20.8631L105.848 20.4719ZM104.355 20.9589C103.969 21.2323 103.76 21.5958 103.76 22.0405H104.16C104.16 21.743 104.291 21.4943 104.586 21.2852L104.355 20.9589ZM103.76 22.0405C103.76 22.4618 103.92 22.8281 104.229 23.1299L104.508 22.8438C104.273 22.6137 104.16 22.3491 104.16 22.0405H103.76ZM104.229 23.1299C104.542 23.4363 104.941 23.5857 105.407 23.5857V23.1857C105.033 23.1857 104.739 23.0692 104.508 22.8438L104.229 23.1299ZM105.407 23.5857C105.925 23.5857 106.413 23.4147 106.87 23.0838L106.635 22.7599C106.238 23.0476 105.83 23.1857 105.407 23.1857V23.5857ZM106.872 23.0823C107.218 22.8242 107.454 22.5015 107.566 22.1149L107.182 22.0032C107.097 22.297 106.918 22.5495 106.633 22.7615L106.872 23.0823ZM107.565 22.1175C107.643 21.8624 107.676 21.41 107.676 20.7881H107.276C107.276 21.4155 107.241 21.8105 107.183 22.0006L107.565 22.1175ZM107.676 20.7881V20.2686H107.276V20.7881H107.676ZM112.806 25H112.606V25.2H112.806V25ZM112.806 11.3994V11.1994H112.606V11.3994H112.806ZM115.413 11.3994H115.613V11.1994H115.413V11.3994ZM115.413 25V25.2H115.613V25H115.413ZM113.006 25V11.3994H112.606V25H113.006ZM112.806 11.5994H115.413V11.1994H112.806V11.5994ZM115.213 11.3994V25H115.613V11.3994H115.213ZM115.413 24.8H112.806V25.2H115.413V24.8Z" fill="#A6A6A6" mask="url(#path-2-outside-1_2_6624)"/>
<defs>
<filter id="filter0_dd_2_6624" x="0.350403" y="1" width="125.187" height="41" filterUnits="userSpaceOnUse" color-interpolation-filters="sRGB">
<feFlood flood-opacity="0" result="BackgroundImageFix"/>
<feColorMatrix in="SourceAlpha" type="matrix" values="0 0 0 0 0 0 0 0 0 0 0 0 0 0 0 0 0 0 127 0" result="hardAlpha"/>
<feMorphology radius="1" operator="dilate" in="SourceAlpha" result="effect1_dropShadow_2_6624"/>
<feOffset dy="2"/>
<feGaussianBlur stdDeviation="0.5"/>
<feComposite in2="hardAlpha" operator="out"/>
<feColorMatrix type="matrix" values="0 0 0 0 0 0 0 0 0 0 0 0 0 0 0 0 0 0 0.25 0"/>
<feBlend mode="normal" in2="BackgroundImageFix" result="effect1_dropShadow_2_6624"/>
<feColorMatrix in="SourceAlpha" type="matrix" values="0 0 0 0 0 0 0 0 0 0 0 0 0 0 0 0 0 0 127 0" result="hardAlpha"/>
<feOffset dy="4"/>
<feGaussianBlur stdDeviation="2"/>
<feComposite in2="hardAlpha" operator="out"/>
<feColorMatrix type="matrix" values="0 0 0 0 0 0 0 0 0 0 0 0 0 0 0 0 0 0 1 0"/>
<feBlend mode="normal" in2="effect1_dropShadow_2_6624" result="effect2_dropShadow_2_6624"/>
<feBlend mode="normal" in="SourceGraphic" in2="effect2_dropShadow_2_6624" result="shape"/>
</filter>
</defs>
</svg>
