<svg width="119" height="42" viewBox="0 0 119 42" fill="none" xmlns="http://www.w3.org/2000/svg">
<g filter="url(#filter0_dd_2_6627)">
<rect x="5.1394" y="1.5" width="109.115" height="32" rx="4.5" stroke="#A6A6A6" shape-rendering="crispEdges"/>
</g>
<mask id="path-2-outside-1_2_6627" maskUnits="userSpaceOnUse" x="26.7856" y="11" width="69" height="19" fill="black">
<rect fill="white" x="26.7856" y="11" width="69" height="19"/>
<path d="M31.9518 25V13.7002H27.9161V11.3994H38.7242V13.7002H34.6979V25H31.9518ZM43.2746 11.3994V16.3999C44.1157 15.4165 45.1208 14.9248 46.2897 14.9248C46.8897 14.9248 47.4308 15.0361 47.9133 15.2588C48.3957 15.4814 48.7575 15.766 48.9987 16.1123C49.2461 16.4587 49.4131 16.8421 49.4997 17.2627C49.5925 17.6833 49.6388 18.3358 49.6388 19.2202V25H47.0319V19.7954C47.0319 18.7625 46.9824 18.1069 46.8835 17.8286C46.7845 17.5503 46.6082 17.3307 46.3547 17.1699C46.1073 17.0029 45.7949 16.9194 45.4177 16.9194C44.9847 16.9194 44.5982 17.0246 44.258 17.2349C43.9178 17.4451 43.6673 17.7637 43.5065 18.1904C43.3519 18.611 43.2746 19.2357 43.2746 20.0645V25H40.6677V11.3994H43.2746ZM51.8791 19.9346C51.8791 19.0687 52.0925 18.2306 52.5193 17.4204C52.946 16.6102 53.5491 15.9917 54.3284 15.5649C55.1138 15.1382 55.989 14.9248 56.9538 14.9248C58.4444 14.9248 59.6659 15.4103 60.6184 16.3813C61.5709 17.3462 62.0471 18.5677 62.0471 20.0459C62.0471 21.5365 61.5647 22.7734 60.5998 23.7568C59.6412 24.734 58.432 25.2227 56.9724 25.2227C56.0694 25.2227 55.2066 25.0186 54.384 24.6104C53.5676 24.2021 52.946 23.6053 52.5193 22.8198C52.0925 22.0282 51.8791 21.0664 51.8791 19.9346ZM54.551 20.0737C54.551 21.0509 54.783 21.7993 55.2468 22.3188C55.7107 22.8384 56.2828 23.0981 56.9631 23.0981C57.6435 23.0981 58.2125 22.8384 58.6702 22.3188C59.134 21.7993 59.366 21.0448 59.366 20.0552C59.366 19.0903 59.134 18.3481 58.6702 17.8286C58.2125 17.3091 57.6435 17.0493 56.9631 17.0493C56.2828 17.0493 55.7107 17.3091 55.2468 17.8286C54.783 18.3481 54.551 19.0965 54.551 20.0737ZM72.8782 18.0605L70.3084 18.5244C70.2218 18.0111 70.0239 17.6245 69.7146 17.3647C69.4116 17.105 69.0158 16.9751 68.5271 16.9751C67.8777 16.9751 67.3582 17.2008 66.9686 17.6523C66.5851 18.0977 66.3934 18.846 66.3934 19.8975C66.3934 21.0664 66.5882 21.8921 66.9778 22.3745C67.3737 22.8569 67.9025 23.0981 68.5643 23.0981C69.0591 23.0981 69.4642 22.959 69.7796 22.6807C70.095 22.3962 70.3177 21.9106 70.4476 21.2241L73.0081 21.6602C72.7422 22.8353 72.2319 23.7228 71.4773 24.3228C70.7228 24.9227 69.7116 25.2227 68.4437 25.2227C67.0026 25.2227 65.8522 24.7681 64.9925 23.8589C64.139 22.9497 63.7122 21.6911 63.7122 20.083C63.7122 18.4564 64.1421 17.1916 65.0018 16.2886C65.8615 15.3794 67.0242 14.9248 68.49 14.9248C69.6899 14.9248 70.6424 15.1846 71.3475 15.7041C72.0587 16.2174 72.569 17.0029 72.8782 18.0605ZM83.6444 18.0605L81.0746 18.5244C80.988 18.0111 80.7901 17.6245 80.4808 17.3647C80.1778 17.105 79.7819 16.9751 79.2933 16.9751C78.6439 16.9751 78.1244 17.2008 77.7347 17.6523C77.3513 18.0977 77.1595 18.846 77.1595 19.8975C77.1595 21.0664 77.3544 21.8921 77.744 22.3745C78.1398 22.8569 78.6686 23.0981 79.3304 23.0981C79.8252 23.0981 80.2303 22.959 80.5458 22.6807C80.8612 22.3962 81.0838 21.9106 81.2137 21.2241L83.7743 21.6602C83.5083 22.8353 82.9981 23.7228 82.2435 24.3228C81.489 24.9227 80.4777 25.2227 79.2098 25.2227C77.7687 25.2227 76.6184 24.7681 75.7587 23.8589C74.9051 22.9497 74.4784 21.6911 74.4784 20.083C74.4784 18.4564 74.9082 17.1916 75.7679 16.2886C76.6276 15.3794 77.7904 14.9248 79.2562 14.9248C80.4561 14.9248 81.4086 15.1846 82.1136 15.7041C82.8249 16.2174 83.3351 17.0029 83.6444 18.0605ZM84.5859 15.1475H87.3598L89.7162 22.1426L92.017 15.1475H94.7167L91.2377 24.6289L90.6161 26.3452C90.3873 26.9204 90.1677 27.3595 89.9574 27.6626C89.7533 27.9657 89.5152 28.21 89.2431 28.3955C88.9771 28.5872 88.6462 28.7357 88.2504 28.8408C87.8608 28.946 87.4185 28.9985 86.9238 28.9985C86.4228 28.9985 85.9311 28.946 85.4487 28.8408L85.2167 26.7998C85.6249 26.8802 85.9929 26.9204 86.3207 26.9204C86.9268 26.9204 87.3752 26.741 87.6659 26.3823C87.9566 26.0298 88.1793 25.5783 88.3339 25.0278L84.5859 15.1475Z"/>
</mask>
<path d="M31.9518 25V13.7002H27.9161V11.3994H38.7242V13.7002H34.6979V25H31.9518ZM43.2746 11.3994V16.3999C44.1157 15.4165 45.1208 14.9248 46.2897 14.9248C46.8897 14.9248 47.4308 15.0361 47.9133 15.2588C48.3957 15.4814 48.7575 15.766 48.9987 16.1123C49.2461 16.4587 49.4131 16.8421 49.4997 17.2627C49.5925 17.6833 49.6388 18.3358 49.6388 19.2202V25H47.0319V19.7954C47.0319 18.7625 46.9824 18.1069 46.8835 17.8286C46.7845 17.5503 46.6082 17.3307 46.3547 17.1699C46.1073 17.0029 45.7949 16.9194 45.4177 16.9194C44.9847 16.9194 44.5982 17.0246 44.258 17.2349C43.9178 17.4451 43.6673 17.7637 43.5065 18.1904C43.3519 18.611 43.2746 19.2357 43.2746 20.0645V25H40.6677V11.3994H43.2746ZM51.8791 19.9346C51.8791 19.0687 52.0925 18.2306 52.5193 17.4204C52.946 16.6102 53.5491 15.9917 54.3284 15.5649C55.1138 15.1382 55.989 14.9248 56.9538 14.9248C58.4444 14.9248 59.6659 15.4103 60.6184 16.3813C61.5709 17.3462 62.0471 18.5677 62.0471 20.0459C62.0471 21.5365 61.5647 22.7734 60.5998 23.7568C59.6412 24.734 58.432 25.2227 56.9724 25.2227C56.0694 25.2227 55.2066 25.0186 54.384 24.6104C53.5676 24.2021 52.946 23.6053 52.5193 22.8198C52.0925 22.0282 51.8791 21.0664 51.8791 19.9346ZM54.551 20.0737C54.551 21.0509 54.783 21.7993 55.2468 22.3188C55.7107 22.8384 56.2828 23.0981 56.9631 23.0981C57.6435 23.0981 58.2125 22.8384 58.6702 22.3188C59.134 21.7993 59.366 21.0448 59.366 20.0552C59.366 19.0903 59.134 18.3481 58.6702 17.8286C58.2125 17.3091 57.6435 17.0493 56.9631 17.0493C56.2828 17.0493 55.7107 17.3091 55.2468 17.8286C54.783 18.3481 54.551 19.0965 54.551 20.0737ZM72.8782 18.0605L70.3084 18.5244C70.2218 18.0111 70.0239 17.6245 69.7146 17.3647C69.4116 17.105 69.0158 16.9751 68.5271 16.9751C67.8777 16.9751 67.3582 17.2008 66.9686 17.6523C66.5851 18.0977 66.3934 18.846 66.3934 19.8975C66.3934 21.0664 66.5882 21.8921 66.9778 22.3745C67.3737 22.8569 67.9025 23.0981 68.5643 23.0981C69.0591 23.0981 69.4642 22.959 69.7796 22.6807C70.095 22.3962 70.3177 21.9106 70.4476 21.2241L73.0081 21.6602C72.7422 22.8353 72.2319 23.7228 71.4773 24.3228C70.7228 24.9227 69.7116 25.2227 68.4437 25.2227C67.0026 25.2227 65.8522 24.7681 64.9925 23.8589C64.139 22.9497 63.7122 21.6911 63.7122 20.083C63.7122 18.4564 64.1421 17.1916 65.0018 16.2886C65.8615 15.3794 67.0242 14.9248 68.49 14.9248C69.6899 14.9248 70.6424 15.1846 71.3475 15.7041C72.0587 16.2174 72.569 17.0029 72.8782 18.0605ZM83.6444 18.0605L81.0746 18.5244C80.988 18.0111 80.7901 17.6245 80.4808 17.3647C80.1778 17.105 79.7819 16.9751 79.2933 16.9751C78.6439 16.9751 78.1244 17.2008 77.7347 17.6523C77.3513 18.0977 77.1595 18.846 77.1595 19.8975C77.1595 21.0664 77.3544 21.8921 77.744 22.3745C78.1398 22.8569 78.6686 23.0981 79.3304 23.0981C79.8252 23.0981 80.2303 22.959 80.5458 22.6807C80.8612 22.3962 81.0838 21.9106 81.2137 21.2241L83.7743 21.6602C83.5083 22.8353 82.9981 23.7228 82.2435 24.3228C81.489 24.9227 80.4777 25.2227 79.2098 25.2227C77.7687 25.2227 76.6184 24.7681 75.7587 23.8589C74.9051 22.9497 74.4784 21.6911 74.4784 20.083C74.4784 18.4564 74.9082 17.1916 75.7679 16.2886C76.6276 15.3794 77.7904 14.9248 79.2562 14.9248C80.4561 14.9248 81.4086 15.1846 82.1136 15.7041C82.8249 16.2174 83.3351 17.0029 83.6444 18.0605ZM84.5859 15.1475H87.3598L89.7162 22.1426L92.017 15.1475H94.7167L91.2377 24.6289L90.6161 26.3452C90.3873 26.9204 90.1677 27.3595 89.9574 27.6626C89.7533 27.9657 89.5152 28.21 89.2431 28.3955C88.9771 28.5872 88.6462 28.7357 88.2504 28.8408C87.8608 28.946 87.4185 28.9985 86.9238 28.9985C86.4228 28.9985 85.9311 28.946 85.4487 28.8408L85.2167 26.7998C85.6249 26.8802 85.9929 26.9204 86.3207 26.9204C86.9268 26.9204 87.3752 26.741 87.6659 26.3823C87.9566 26.0298 88.1793 25.5783 88.3339 25.0278L84.5859 15.1475Z" fill="#A6A6A6"/>
<path d="M31.9518 25H31.7518V25.2H31.9518V25ZM31.9518 13.7002H32.1518V13.5002H31.9518V13.7002ZM27.9161 13.7002H27.7161V13.9002H27.9161V13.7002ZM27.9161 11.3994V11.1994H27.7161V11.3994H27.9161ZM38.7242 11.3994H38.9242V11.1994H38.7242V11.3994ZM38.7242 13.7002V13.9002H38.9242V13.7002H38.7242ZM34.6979 13.7002V13.5002H34.4979V13.7002H34.6979ZM34.6979 25V25.2H34.8979V25H34.6979ZM32.1518 25V13.7002H31.7518V25H32.1518ZM31.9518 13.5002H27.9161V13.9002H31.9518V13.5002ZM28.1161 13.7002V11.3994H27.7161V13.7002H28.1161ZM27.9161 11.5994H38.7242V11.1994H27.9161V11.5994ZM38.5242 11.3994V13.7002H38.9242V11.3994H38.5242ZM38.7242 13.5002H34.6979V13.9002H38.7242V13.5002ZM34.4979 13.7002V25H34.8979V13.7002H34.4979ZM34.6979 24.8H31.9518V25.2H34.6979V24.8ZM43.2746 11.3994H43.4746V11.1994H43.2746V11.3994ZM43.2746 16.3999H43.0746V16.9414L43.4266 16.5299L43.2746 16.3999ZM48.9987 16.1123L48.8346 16.2266L48.836 16.2286L48.9987 16.1123ZM49.4997 17.2627L49.3038 17.303L49.3044 17.3058L49.4997 17.2627ZM49.6388 25V25.2H49.8388V25H49.6388ZM47.0319 25H46.8319V25.2H47.0319V25ZM46.3547 17.1699L46.2427 17.3358L46.2476 17.3388L46.3547 17.1699ZM44.258 17.2349L44.3632 17.405L44.258 17.2349ZM43.5065 18.1904L43.3194 18.1199L43.3188 18.1214L43.5065 18.1904ZM43.2746 25V25.2H43.4746V25H43.2746ZM40.6677 25H40.4677V25.2H40.6677V25ZM40.6677 11.3994V11.1994H40.4677V11.3994H40.6677ZM43.0746 11.3994V16.3999H43.4746V11.3994H43.0746ZM43.4266 16.5299C44.2343 15.5856 45.1859 15.1248 46.2897 15.1248V14.7248C45.0556 14.7248 43.9972 15.2474 43.1226 16.2699L43.4266 16.5299ZM46.2897 15.1248C46.8645 15.1248 47.3765 15.2313 47.8294 15.4404L47.9971 15.0772C47.4852 14.8409 46.9149 14.7248 46.2897 14.7248V15.1248ZM47.8294 15.4404C48.2878 15.6519 48.6183 15.9161 48.8346 16.2266L49.1628 15.998C48.8967 15.6158 48.5035 15.3109 47.9971 15.0772L47.8294 15.4404ZM48.836 16.2286C49.067 16.552 49.2228 16.9095 49.3038 17.303L49.6956 17.2224C49.6034 16.7747 49.4252 16.3653 49.1615 15.9961L48.836 16.2286ZM49.3044 17.3058C49.3922 17.7041 49.4388 18.3384 49.4388 19.2202H49.8388C49.8388 18.3331 49.7927 17.6625 49.695 17.2196L49.3044 17.3058ZM49.4388 19.2202V25H49.8388V19.2202H49.4388ZM49.6388 24.8H47.0319V25.2H49.6388V24.8ZM47.2319 25V19.7954H46.8319V25H47.2319ZM47.2319 19.7954C47.2319 19.2764 47.2195 18.8488 47.1942 18.514C47.1694 18.1847 47.1311 17.928 47.0719 17.7616L46.695 17.8956C46.7348 18.0076 46.7707 18.2178 46.7954 18.5441C46.8196 18.8649 46.8319 19.2815 46.8319 19.7954H47.2319ZM47.0719 17.7616C46.9577 17.4404 46.7524 17.1853 46.4618 17.001L46.2476 17.3388C46.4641 17.4761 46.6113 17.6601 46.695 17.8956L47.0719 17.7616ZM46.4666 17.0042C46.1784 16.8096 45.8243 16.7194 45.4177 16.7194V17.1194C45.7656 17.1194 46.0362 17.1962 46.2428 17.3357L46.4666 17.0042ZM45.4177 16.7194C44.9507 16.7194 44.5272 16.8333 44.1528 17.0647L44.3632 17.405C44.6691 17.2158 45.0187 17.1194 45.4177 17.1194V16.7194ZM44.1528 17.0647C43.7699 17.3015 43.4935 17.6579 43.3194 18.1199L43.6937 18.261C43.8412 17.8695 44.0657 17.5888 44.3632 17.405L44.1528 17.0647ZM43.3188 18.1214C43.1518 18.5756 43.0746 19.2286 43.0746 20.0645H43.4746C43.4746 19.2427 43.552 18.6464 43.6942 18.2594L43.3188 18.1214ZM43.0746 20.0645V25H43.4746V20.0645H43.0746ZM43.2746 24.8H40.6677V25.2H43.2746V24.8ZM40.8677 25V11.3994H40.4677V25H40.8677ZM40.6677 11.5994H43.2746V11.1994H40.6677V11.5994ZM54.3284 15.5649L54.2329 15.3892L54.2323 15.3895L54.3284 15.5649ZM60.6184 16.3813L60.4756 16.5214L60.4761 16.5219L60.6184 16.3813ZM60.5998 23.7568L60.4571 23.6168L60.4571 23.6168L60.5998 23.7568ZM54.384 24.6104L54.2946 24.7892L54.2951 24.7895L54.384 24.6104ZM52.5193 22.8198L52.3432 22.9147L52.3435 22.9153L52.5193 22.8198ZM58.6702 22.3188L58.521 22.1856L58.5201 22.1866L58.6702 22.3188ZM58.6702 17.8286L58.5201 17.9608L58.521 17.9618L58.6702 17.8286ZM52.0791 19.9346C52.0791 19.103 52.2837 18.2968 52.6962 17.5136L52.3423 17.3272C51.9013 18.1645 51.6791 19.0343 51.6791 19.9346H52.0791ZM52.6962 17.5136C53.1053 16.737 53.6807 16.1476 54.4244 15.7404L54.2323 15.3895C53.4174 15.8358 52.7868 16.4834 52.3423 17.3272L52.6962 17.5136ZM54.4238 15.7407C55.1777 15.3311 56.0196 15.1248 56.9538 15.1248V14.7248C55.9584 14.7248 55.05 14.9453 54.2329 15.3892L54.4238 15.7407ZM56.9538 15.1248C58.3964 15.1248 59.5646 15.5926 60.4756 16.5214L60.7612 16.2413C59.7673 15.2281 58.4924 14.7248 56.9538 14.7248V15.1248ZM60.4761 16.5219C61.3881 17.4457 61.8471 18.6151 61.8471 20.0459H62.2471C62.2471 18.5203 61.7537 17.2467 60.7607 16.2408L60.4761 16.5219ZM61.8471 20.0459C61.8471 21.4888 61.3821 22.674 60.4571 23.6168L60.7426 23.8969C61.7473 22.8729 62.2471 21.5841 62.2471 20.0459H61.8471ZM60.4571 23.6168C59.5387 24.5529 58.3823 25.0227 56.9724 25.0227V25.4227C58.4818 25.4227 59.7437 24.9152 60.7426 23.8969L60.4571 23.6168ZM56.9724 25.0227C56.1008 25.0227 55.2684 24.8259 54.4729 24.4312L54.2951 24.7895C55.1449 25.2112 56.038 25.4227 56.9724 25.4227V25.0227ZM54.4735 24.4315C53.6929 24.0412 53.1018 23.473 52.695 22.7243L52.3435 22.9153C52.7903 23.7376 53.4424 24.3631 54.2946 24.7892L54.4735 24.4315ZM52.6953 22.7249C52.2878 21.969 52.0791 21.0417 52.0791 19.9346H51.6791C51.6791 21.0911 51.8972 22.0873 52.3432 22.9147L52.6953 22.7249ZM54.351 20.0737C54.351 21.0803 54.5899 21.8834 55.0976 22.4521L55.396 22.1856C54.976 21.7152 54.751 21.0216 54.751 20.0737H54.351ZM55.0976 22.4521C55.5984 23.0129 56.2243 23.2981 56.9631 23.2981V22.8981C56.3413 22.8981 55.823 22.6638 55.396 22.1856L55.0976 22.4521ZM56.9631 23.2981C57.7021 23.2981 58.3253 23.0128 58.8202 22.4511L58.5201 22.1866C58.0996 22.6639 57.5849 22.8981 56.9631 22.8981V23.2981ZM58.8193 22.4521C59.3274 21.883 59.566 21.0734 59.566 20.0552H59.166C59.166 21.0161 58.9406 21.7156 58.521 22.1856L58.8193 22.4521ZM59.566 20.0552C59.566 19.0602 59.3267 18.2636 58.8193 17.6954L58.521 17.9618C58.9414 18.4327 59.166 19.1205 59.166 20.0552H59.566ZM58.8202 17.6964C58.3253 17.1347 57.7021 16.8493 56.9631 16.8493V17.2493C57.5849 17.2493 58.0996 17.4835 58.5201 17.9608L58.8202 17.6964ZM56.9631 16.8493C56.2243 16.8493 55.5984 17.1345 55.0976 17.6954L55.396 17.9618C55.823 17.4836 56.3413 17.2493 56.9631 17.2493V16.8493ZM55.0976 17.6954C54.5899 18.264 54.351 19.0671 54.351 20.0737H54.751C54.751 19.1259 54.976 18.4322 55.396 17.9618L55.0976 17.6954ZM72.8782 18.0605L72.9137 18.2574L73.1326 18.2179L73.0702 18.0044L72.8782 18.0605ZM70.3084 18.5244L70.1112 18.5577L70.1448 18.7572L70.3439 18.7212L70.3084 18.5244ZM69.7146 17.3647L69.5845 17.5166L69.586 17.5179L69.7146 17.3647ZM66.9686 17.6523L66.8171 17.5217L66.817 17.5218L66.9686 17.6523ZM66.9778 22.3745L66.8222 22.5002L66.8232 22.5014L66.9778 22.3745ZM69.7796 22.6807L69.9119 22.8306L69.9135 22.8292L69.7796 22.6807ZM70.4476 21.2241L70.4811 21.027L70.2875 20.994L70.251 21.1869L70.4476 21.2241ZM73.0081 21.6602L73.2032 21.7043L73.2498 21.4984L73.0417 21.463L73.0081 21.6602ZM71.4773 24.3228L71.3529 24.1662L71.4773 24.3228ZM64.9925 23.8589L64.8467 23.9958L64.8472 23.9963L64.9925 23.8589ZM65.0018 16.2886L65.1466 16.4265L65.1471 16.426L65.0018 16.2886ZM71.3475 15.7041L71.2288 15.8651L71.2304 15.8663L71.3475 15.7041ZM72.8427 17.8637L70.2729 18.3276L70.3439 18.7212L72.9137 18.2574L72.8427 17.8637ZM70.5056 18.4911C70.4135 17.9448 70.1984 17.5099 69.8433 17.2116L69.586 17.5179C69.8494 17.7392 70.0302 18.0773 70.1112 18.5577L70.5056 18.4911ZM69.8448 17.2129C69.4979 16.9155 69.0524 16.7751 68.5271 16.7751V17.1751C68.9791 17.1751 69.3253 17.2944 69.5845 17.5166L69.8448 17.2129ZM68.5271 16.7751C67.8254 16.7751 67.2484 17.0219 66.8171 17.5217L67.12 17.783C67.468 17.3798 67.93 17.1751 68.5271 17.1751V16.7751ZM66.817 17.5218C66.3856 18.0228 66.1934 18.832 66.1934 19.8975H66.5934C66.5934 18.86 66.7846 18.1725 67.1201 17.7828L66.817 17.5218ZM66.1934 19.8975C66.1934 21.077 66.3876 21.9621 66.8222 22.5002L67.1334 22.2488C66.7887 21.8221 66.5934 21.0558 66.5934 19.8975H66.1934ZM66.8232 22.5014C67.2596 23.0332 67.8467 23.2981 68.5643 23.2981V22.8981C67.9582 22.8981 67.4877 22.6807 67.1324 22.2476L66.8232 22.5014ZM68.5643 23.2981C69.0987 23.2981 69.5537 23.1467 69.9119 22.8306L69.6473 22.5307C69.3747 22.7712 69.0194 22.8981 68.5643 22.8981V23.2981ZM69.9135 22.8292C70.2765 22.5018 70.5109 21.9654 70.6441 21.2613L70.251 21.1869C70.1245 21.8559 69.9136 22.2905 69.6456 22.5322L69.9135 22.8292ZM70.414 21.4213L72.9745 21.8573L73.0417 21.463L70.4811 21.027L70.414 21.4213ZM72.813 21.616C72.5546 22.7581 72.0636 23.6011 71.3529 24.1662L71.6018 24.4793C72.4002 23.8445 72.9297 22.9125 73.2032 21.7043L72.813 21.616ZM71.3529 24.1662C70.6435 24.7302 69.6807 25.0227 68.4437 25.0227V25.4227C69.7424 25.4227 70.8021 25.1152 71.6018 24.4793L71.3529 24.1662ZM68.4437 25.0227C67.0484 25.0227 65.9539 24.5845 65.1378 23.7215L64.8472 23.9963C65.7505 24.9516 66.9567 25.4227 68.4437 25.4227V25.0227ZM65.1383 23.722C64.3288 22.8597 63.9122 21.6555 63.9122 20.083H63.5122C63.5122 21.7267 63.9491 23.0397 64.8467 23.9958L65.1383 23.722ZM63.9122 20.083C63.9122 18.4916 64.3321 17.282 65.1466 16.4265L64.8569 16.1507C63.952 17.1011 63.5122 18.4212 63.5122 20.083H63.9122ZM65.1471 16.426C65.9625 15.5636 67.0689 15.1248 68.49 15.1248V14.7248C66.9795 14.7248 65.7604 15.1951 64.8564 16.1512L65.1471 16.426ZM68.49 15.1248C69.6627 15.1248 70.5688 15.3788 71.2288 15.8651L71.4661 15.5431C70.716 14.9904 69.7171 14.7248 68.49 14.7248V15.1248ZM71.2304 15.8663C71.8972 16.3475 72.3862 17.0906 72.6863 18.1167L73.0702 18.0044C72.7517 16.9152 72.2202 16.0874 71.4645 15.5419L71.2304 15.8663ZM83.6444 18.0605L83.6799 18.2574L83.8988 18.2179L83.8364 18.0044L83.6444 18.0605ZM81.0746 18.5244L80.8774 18.5577L80.911 18.7572L81.1101 18.7212L81.0746 18.5244ZM80.4808 17.3647L80.3507 17.5166L80.3522 17.5179L80.4808 17.3647ZM77.7347 17.6523L77.5833 17.5217L77.5832 17.5218L77.7347 17.6523ZM77.744 22.3745L77.5884 22.5002L77.5894 22.5014L77.744 22.3745ZM80.5458 22.6807L80.6781 22.8306L80.6797 22.8292L80.5458 22.6807ZM81.2137 21.2241L81.2473 21.027L81.0537 20.994L81.0172 21.1869L81.2137 21.2241ZM83.7743 21.6602L83.9693 21.7043L84.0159 21.4984L83.8079 21.463L83.7743 21.6602ZM82.2435 24.3228L82.119 24.1662L82.2435 24.3228ZM75.7587 23.8589L75.6128 23.9958L75.6133 23.9963L75.7587 23.8589ZM75.7679 16.2886L75.9128 16.4265L75.9132 16.426L75.7679 16.2886ZM82.1136 15.7041L81.995 15.8651L81.9966 15.8663L82.1136 15.7041ZM83.6089 17.8637L81.039 18.3276L81.1101 18.7212L83.6799 18.2574L83.6089 17.8637ZM81.2718 18.4911C81.1796 17.9448 80.9645 17.5099 80.6095 17.2116L80.3522 17.5179C80.6156 17.7392 80.7963 18.0773 80.8774 18.5577L81.2718 18.4911ZM80.611 17.2129C80.264 16.9155 79.8185 16.7751 79.2933 16.7751V17.1751C79.7453 17.1751 80.0915 17.2944 80.3507 17.5166L80.611 17.2129ZM79.2933 16.7751C78.5916 16.7751 78.0146 17.0219 77.5833 17.5217L77.8861 17.783C78.2341 17.3798 78.6962 17.1751 79.2933 17.1751V16.7751ZM77.5832 17.5218C77.1518 18.0228 76.9595 18.832 76.9595 19.8975H77.3595C77.3595 18.86 77.5507 18.1725 77.8863 17.7828L77.5832 17.5218ZM76.9595 19.8975C76.9595 21.077 77.1538 21.9621 77.5884 22.5002L77.8996 22.2488C77.5549 21.8221 77.3595 21.0558 77.3595 19.8975H76.9595ZM77.5894 22.5014C78.0258 23.0332 78.6129 23.2981 79.3304 23.2981V22.8981C78.7244 22.8981 78.2539 22.6807 77.8986 22.2476L77.5894 22.5014ZM79.3304 23.2981C79.8649 23.2981 80.3198 23.1467 80.6781 22.8306L80.4134 22.5307C80.1408 22.7712 79.7856 22.8981 79.3304 22.8981V23.2981ZM80.6797 22.8292C81.0426 22.5018 81.277 21.9654 81.4102 21.2613L81.0172 21.1869C80.8907 21.8559 80.6798 22.2905 80.4118 22.5322L80.6797 22.8292ZM81.1802 21.4213L83.7407 21.8573L83.8079 21.463L81.2473 21.027L81.1802 21.4213ZM83.5792 21.616C83.3207 22.7581 82.8298 23.6011 82.119 24.1662L82.368 24.4793C83.1663 23.8445 83.6959 22.9125 83.9693 21.7043L83.5792 21.616ZM82.119 24.1662C81.4097 24.7302 80.4468 25.0227 79.2098 25.0227V25.4227C80.5086 25.4227 81.5683 25.1152 82.368 24.4793L82.119 24.1662ZM79.2098 25.0227C77.8146 25.0227 76.7201 24.5845 75.904 23.7215L75.6133 23.9963C76.5166 24.9516 77.7229 25.4227 79.2098 25.4227V25.0227ZM75.9045 23.722C75.095 22.8597 74.6784 21.6555 74.6784 20.083H74.2784C74.2784 21.7267 74.7153 23.0397 75.6128 23.9958L75.9045 23.722ZM74.6784 20.083C74.6784 18.4916 75.0982 17.282 75.9128 16.4265L75.6231 16.1507C74.7182 17.1011 74.2784 18.4212 74.2784 20.083H74.6784ZM75.9132 16.426C76.7287 15.5636 77.8351 15.1248 79.2562 15.1248V14.7248C77.7457 14.7248 76.5266 15.1951 75.6226 16.1512L75.9132 16.426ZM79.2562 15.1248C80.4289 15.1248 81.335 15.3788 81.995 15.8651L82.2323 15.5431C81.4821 14.9904 80.4833 14.7248 79.2562 14.7248V15.1248ZM81.9966 15.8663C82.6634 16.3475 83.1524 17.0906 83.4524 18.1167L83.8364 18.0044C83.5179 16.9152 82.9864 16.0874 82.2307 15.5419L81.9966 15.8663ZM84.5859 15.1475V14.9475H84.2961L84.3989 15.2184L84.5859 15.1475ZM87.3598 15.1475L87.5493 15.0836L87.5035 14.9475H87.3598V15.1475ZM89.7162 22.1426L89.5267 22.2064L89.7185 22.7758L89.9062 22.2051L89.7162 22.1426ZM92.017 15.1475V14.9475H91.8723L91.827 15.085L92.017 15.1475ZM94.7167 15.1475L94.9045 15.2164L95.0031 14.9475H94.7167V15.1475ZM91.2377 24.6289L91.05 24.56L91.0497 24.5608L91.2377 24.6289ZM90.6161 26.3452L90.8021 26.4192L90.8042 26.4133L90.6161 26.3452ZM89.9574 27.6626L89.7931 27.5486L89.7916 27.5509L89.9574 27.6626ZM89.2431 28.3955L89.1304 28.2302L89.1261 28.2333L89.2431 28.3955ZM88.2504 28.8408L88.1991 28.6475L88.1983 28.6477L88.2504 28.8408ZM85.4487 28.8408L85.2499 28.8634L85.2661 29.0057L85.4061 29.0362L85.4487 28.8408ZM85.2167 26.7998L85.2554 26.6036L84.9871 26.5507L85.018 26.8224L85.2167 26.7998ZM87.6659 26.3823L87.5116 26.2551L87.5106 26.2564L87.6659 26.3823ZM88.3339 25.0278L88.5265 25.0819L88.5443 25.0185L88.5209 24.9569L88.3339 25.0278ZM84.5859 15.3475H87.3598V14.9475H84.5859V15.3475ZM87.1702 15.2113L89.5267 22.2064L89.9058 22.0787L87.5493 15.0836L87.1702 15.2113ZM89.9062 22.2051L92.207 15.21L91.827 15.085L89.5262 22.0801L89.9062 22.2051ZM92.017 15.3475H94.7167V14.9475H92.017V15.3475ZM94.529 15.0786L91.05 24.56L91.4255 24.6978L94.9045 15.2164L94.529 15.0786ZM91.0497 24.5608L90.4281 26.2771L90.8042 26.4133L91.4258 24.697L91.0497 24.5608ZM90.4303 26.2713C90.2038 26.8405 89.9909 27.2636 89.7931 27.5486L90.1218 27.7766C90.3446 27.4555 90.5707 27.0003 90.802 26.4191L90.4303 26.2713ZM89.7916 27.5509C89.6001 27.8352 89.3794 28.0605 89.1304 28.2303L89.3558 28.5608C89.651 28.3594 89.9066 28.0961 90.1233 27.7743L89.7916 27.5509ZM89.1261 28.2333C88.8842 28.4077 88.577 28.5471 88.1991 28.6475L88.3018 29.0341C88.7155 28.9242 89.0701 28.7668 89.36 28.5577L89.1261 28.2333ZM88.1983 28.6477C87.829 28.7474 87.4047 28.7985 86.9238 28.7985V29.1985C87.4323 29.1985 87.8926 29.1445 88.3025 29.0339L88.1983 28.6477ZM86.9238 28.7985C86.4369 28.7985 85.9595 28.7475 85.4912 28.6454L85.4061 29.0362C85.9027 29.1445 86.4087 29.1985 86.9238 29.1985V28.7985ZM85.6474 28.8182L85.4154 26.7772L85.018 26.8224L85.2499 28.8634L85.6474 28.8182ZM85.1781 26.996C85.5958 27.0783 85.977 27.1204 86.3207 27.1204V26.7204C86.0088 26.7204 85.6541 26.6821 85.2554 26.6036L85.1781 26.996ZM86.3207 27.1204C86.9669 27.1204 87.4815 26.9276 87.8213 26.5082L87.5106 26.2564C87.269 26.5545 86.8868 26.7204 86.3207 26.7204V27.1204ZM87.8202 26.5096C88.1325 26.1309 88.3661 25.6526 88.5265 25.0819L88.1414 24.9737C87.9924 25.5039 87.7808 25.9287 87.5116 26.2551L87.8202 26.5096ZM88.5209 24.9569L84.7729 15.0765L84.3989 15.2184L88.1469 25.0988L88.5209 24.9569Z" fill="#A6A6A6" mask="url(#path-2-outside-1_2_6627)"/>
<defs>
<filter id="filter0_dd_2_6627" x="0.639404" y="1" width="118.115" height="41" filterUnits="userSpaceOnUse" color-interpolation-filters="sRGB">
<feFlood flood-opacity="0" result="BackgroundImageFix"/>
<feColorMatrix in="SourceAlpha" type="matrix" values="0 0 0 0 0 0 0 0 0 0 0 0 0 0 0 0 0 0 127 0" result="hardAlpha"/>
<feMorphology radius="1" operator="dilate" in="SourceAlpha" result="effect1_dropShadow_2_6627"/>
<feOffset dy="2"/>
<feGaussianBlur stdDeviation="0.5"/>
<feComposite in2="hardAlpha" operator="out"/>
<feColorMatrix type="matrix" values="0 0 0 0 0 0 0 0 0 0 0 0 0 0 0 0 0 0 0.25 0"/>
<feBlend mode="normal" in2="BackgroundImageFix" result="effect1_dropShadow_2_6627"/>
<feColorMatrix in="SourceAlpha" type="matrix" values="0 0 0 0 0 0 0 0 0 0 0 0 0 0 0 0 0 0 127 0" result="hardAlpha"/>
<feOffset dy="4"/>
<feGaussianBlur stdDeviation="2"/>
<feComposite in2="hardAlpha" operator="out"/>
<feColorMatrix type="matrix" values="0 0 0 0 0 0 0 0 0 0 0 0 0 0 0 0 0 0 1 0"/>
<feBlend mode="normal" in2="effect1_dropShadow_2_6627" result="effect2_dropShadow_2_6627"/>
<feBlend mode="normal" in="SourceGraphic" in2="effect2_dropShadow_2_6627" result="shape"/>
</filter>
</defs>
</svg>
